<?xml version="1.0" encoding="iso-8859-1"?>
<!-- Generator: Adobe Illustrator 19.0.0, SVG Export Plug-In . SVG Version: 6.00 Build 0)  -->
<svg xmlns="http://www.w3.org/2000/svg" xmlns:xlink="http://www.w3.org/1999/xlink" version="1.1" id="Capa_1" x="0px" y="0px" viewBox="0 0 512 512" style="enable-background:new 0 0 512 512;" xml:space="preserve" width="512px" height="512px">
<g>
	<g>
		<path d="M507.756,86.871c-2.101-1.479-16.514-11.237-32.444-12.652c0.935-10.859-2.175-21.519-8.865-30.21    c-4.657-6.049-10.844-10.779-17.893-13.678c-3.302-1.357-7.076-0.852-9.905,1.324c-2.829,2.177-4.282,5.697-3.815,9.236    c1.097,8.302-2.332,16.625-8.951,21.718c-3.976,3.06-8.673,4.707-13.645,4.83c-9.318-3.682-19.338-5.638-29.575-5.638H340.48    c-10.236,0-20.256,1.955-29.572,5.637c-4.982-0.124-9.671-1.767-13.648-4.829c-6.617-5.093-10.047-13.414-8.95-21.717    c0.467-3.539-0.986-7.058-3.816-9.236c-2.83-2.177-6.605-2.682-9.904-1.324c-7.05,2.898-13.236,7.628-17.894,13.678    c-6.888,8.951-9.74,19.756-8.846,30.209c-15.937,1.41-30.361,11.174-32.463,12.653c-3.045,2.143-4.647,5.799-4.158,9.49    c0.263,1.986,1.9,12.883,7.228,23.594c-0.962,0-1.911,0.001-2.799,0.01c-4.581,0-9.116,0.048-12.567,0.091    c-1.531,0.021-3.09,0.045-4.674,0.074c-3.168,0.058-6.435,0.135-9.781,0.24c-1.673,0.052-3.366,0.112-5.075,0.18    c-1.801,0.071-3.624,0.154-5.459,0.244c-19.059,0.944-39.768,3.01-58.478,7.69c-0.001,0-0.002,0.001-0.003,0.001    c-15.149,3.794-27.919,8.921-39.035,15.675c-22.385,13.585-37.517,33.676-45.656,60.8c-20.939-30.255-19.773-71.625,4.213-100.807    l34.479-9.238c7.962-2.133,13.989-8.16,16.122-16.123c2.133-7.961-0.073-16.194-5.901-22.023L72.049,44.977    c-5.829-5.828-14.063-8.032-22.024-5.901c-7.961,2.133-13.989,8.16-16.122,16.122L24.44,90.513    C7.979,110.067-0.671,134.76,0.041,160.322c0.729,26.175,11.244,50.838,29.622,69.576c-1.259,9.427-1.89,19.507-1.89,30.264    c0,5.451,0.425,10.9,1.259,16.17c3.991,25.66,17.598,49.75,38.778,69.787v90.769v35.533c0,5.524,4.478,10.002,10.002,10.002    h50.869c5.524,0,10.002-4.478,10.002-10.002v-35.533v-24.155c9.787,9.972,23.402,16.172,38.444,16.172h19.752    c24.23,0,45.093-16.13,51.701-38.711c14.832-0.302,28.642-1.113,41.601-3.193v49.886v35.533c0,5.524,4.479,10.002,10.002,10.002    h50.869c5.523,0,10.002-4.478,10.002-10.002v-35.533v-82.519c21.482-17.375,36.764-38.514,44.221-61.458    c8.57-2.39,16.426-6.948,22.882-13.421c9.307-9.332,14.651-21.555,15.205-34.639c6.22-9.922,10.123-20.859,11.598-32.561    l7.56-59.927c0.448-3.557,0.655-7.117,0.629-10.66c3.03,0.587,5.96,0.881,8.775,0.881c4.921,0,9.489-0.899,13.613-2.706    c21.274-9.322,25.917-40.042,26.377-43.514C512.401,92.671,510.799,89.014,507.756,86.871z M53.224,60.376    c0.345-1.289,1.266-1.786,1.977-1.977c0.231-0.062,0.498-0.107,0.785-0.107c0.596,0,1.28,0.194,1.917,0.831l11.791,11.791    c0.944,0.943,0.915,1.989,0.724,2.701c-0.191,0.712-0.689,1.632-1.977,1.978l-20.787,5.569L53.224,60.376z M270.754,58.899    c2.785,7.629,7.683,14.466,14.303,19.56c1.11,0.854,2.257,1.651,3.438,2.388c-2.972,2.513-5.779,5.249-8.386,8.205    c-0.425,0.482-0.842,0.971-1.255,1.462c-0.192-0.118-0.389-0.231-0.576-0.353c-0.061-0.04-0.122-0.079-0.182-0.119    c-0.436-0.29-0.859-0.59-1.261-0.899c-0.634-0.488-1.232-1.009-1.807-1.551c-0.203-0.192-0.388-0.396-0.583-0.594    c-0.357-0.362-0.71-0.728-1.041-1.111c-0.21-0.242-0.406-0.493-0.604-0.742c-0.296-0.372-0.583-0.751-0.855-1.141    c-0.179-0.255-0.353-0.513-0.521-0.774c-0.275-0.428-0.532-0.869-0.78-1.317C266.75,74.873,266.632,66.118,270.754,58.899z     M254.748,94.325c0.209,0.321,0.43,0.634,0.647,0.949c0.085,0.122,0.165,0.247,0.251,0.368c0.794,1.126,1.641,2.21,2.538,3.253    c0.072,0.084,0.148,0.166,0.222,0.25c0.372,0.426,0.752,0.845,1.141,1.256c0.128,0.135,0.259,0.269,0.389,0.403    c0.346,0.356,0.698,0.707,1.057,1.051c0.155,0.149,0.31,0.298,0.468,0.445c0.358,0.334,0.724,0.661,1.095,0.984    c0.156,0.136,0.31,0.275,0.469,0.41c0.511,0.433,1.032,0.858,1.566,1.27c0.013,0.01,0.026,0.021,0.039,0.032    c0.714,0.549,1.447,1.066,2.188,1.567c0.056,0.038,0.108,0.08,0.164,0.118c0.214,0.463,0.423,0.937,0.628,1.421    c-0.031,0.065-0.057,0.131-0.088,0.196c-0.381,0.818-0.751,1.641-1.104,2.471c-0.141,0.33-0.273,0.663-0.409,0.994    c-0.191,0.467-0.379,0.934-0.561,1.404c-0.179,0.459-0.356,0.918-0.526,1.38c-0.063,0.172-0.121,0.345-0.183,0.518    c-0.394,1.092-0.763,2.193-1.108,3.302c-0.044,0.142-0.089,0.284-0.132,0.427c-0.128,0.419-0.268,0.835-0.389,1.256    c-3.489,1.328-6.703,2.129-9.568,2.416c-0.033,0.003-0.066,0.001-0.099,0.004c-1.434,0.141-2.771,0.146-4.005,0.019    c-0.007-0.001-0.015-0.001-0.022-0.001c-0.561-0.058-1.094-0.153-1.611-0.267c-0.065-0.014-0.134-0.023-0.198-0.038    c-0.473-0.112-0.917-0.257-1.35-0.415c-0.206-0.076-0.429-0.131-0.626-0.217c-7.028-3.08-11.271-13.919-13.286-21.616    C238.87,96.475,248.048,93.024,254.748,94.325z M225.45,140.048c4.939,0.127,9.878,0.394,14.757,0.816    c1.552,0.518,3.161,0.916,4.82,1.198c0.088,0.015,0.175,0.031,0.263,0.045c0.425,0.069,0.854,0.129,1.285,0.182    c0.192,0.024,0.384,0.048,0.577,0.069c0.335,0.036,0.671,0.066,1.01,0.093c0.297,0.024,0.595,0.046,0.894,0.063    c0.246,0.014,0.494,0.024,0.742,0.033c0.393,0.015,0.788,0.025,1.186,0.027c0.078,0,0.154,0.005,0.232,0.005    c0.059,0,0.12-0.006,0.18-0.006c0.895-0.003,1.798-0.025,2.716-0.088c1.961,0.287,3.923,0.6,5.874,0.937    c0.036,2.255,0.167,4.518,0.392,6.777c0.071,0.719,0.152,1.439,0.243,2.158l1.497,11.871c-13.988-2.823-28.392-4.274-42.973-4.274    c-1.002,0-1.975,0.002-2.951,0.004C221.038,154.127,224.28,147.349,225.45,140.048z M138.066,145.04    c0.46-0.081,0.918-0.167,1.38-0.245c1.569-0.265,3.146-0.518,4.73-0.755c0.113-0.017,0.227-0.031,0.339-0.048    c1.471-0.217,2.948-0.423,4.429-0.617c0.523-0.068,1.047-0.131,1.57-0.196c1.078-0.135,2.157-0.268,3.239-0.392    c0.602-0.069,1.205-0.134,1.808-0.2c1.013-0.11,2.027-0.217,3.041-0.318c0.617-0.062,1.234-0.122,1.851-0.18    c1.02-0.096,2.039-0.187,3.058-0.274c0.588-0.05,1.177-0.102,1.764-0.15c1.11-0.09,2.217-0.173,3.324-0.253    c0.483-0.035,0.967-0.073,1.449-0.106c1.581-0.109,3.158-0.211,4.725-0.303c0.087-0.005,0.172-0.009,0.258-0.014    c1.485-0.086,2.961-0.164,4.43-0.236c0.531-0.026,1.056-0.048,1.584-0.072c1.02-0.047,2.039-0.092,3.049-0.132    c0.602-0.024,1.199-0.046,1.797-0.068c0.934-0.035,1.865-0.067,2.789-0.097c0.601-0.019,1.199-0.038,1.795-0.056    c0.924-0.027,1.841-0.052,2.753-0.076c0.563-0.014,1.127-0.029,1.684-0.042c0.973-0.023,1.934-0.042,2.891-0.061    c0.468-0.009,0.943-0.02,1.407-0.028c1.397-0.025,2.779-0.047,4.135-0.065c0.506-0.004,1.035-0.01,1.584-0.016    c-3.943,11.564-18.874,20.453-36.091,20.453c-14.346,0-27.213-6.128-33.33-14.987C136.358,145.346,137.209,145.19,138.066,145.04z     M118.679,462.417H87.813v-15.53h30.866V462.417z M118.68,426.883H87.814v-64.606c0.153,0.106,0.313,0.206,0.467,0.311    c3.015,2.07,6.128,4.073,9.338,6.003c0.42,0.253,0.845,0.5,1.268,0.75c1.22,0.721,2.452,1.431,3.7,2.131    c0.461,0.259,0.921,0.52,1.385,0.776c1.638,0.903,3.291,1.793,4.973,2.66c0,0,0.002,0.001,0.003,0.001    c0.796,0.41,1.598,0.809,2.406,1.198c0.372,0.179,0.747,0.348,1.121,0.522c0.432,0.202,0.862,0.407,1.299,0.603    c0.765,0.344,1.534,0.676,2.305,1c0.033,0.014,0.066,0.029,0.099,0.043c0.83,0.348,1.663,0.685,2.5,1.011V426.883z     M111.668,353.622c-0.665-0.378-1.332-0.754-1.99-1.139c-0.083-0.049-0.167-0.097-0.25-0.146    c-0.325-0.191-0.651-0.381-0.975-0.574c-1.179-0.704-2.345-1.419-3.498-2.144c-0.353-0.222-0.703-0.447-1.054-0.672    c-1.121-0.718-2.231-1.444-3.326-2.183c-0.119-0.081-0.242-0.16-0.361-0.241c-0.1-0.068-0.199-0.137-0.299-0.206    c-1.193-0.814-2.369-1.641-3.531-2.479c-0.085-0.061-0.17-0.123-0.254-0.184c-0.147-0.107-0.293-0.214-0.439-0.321    c-1.182-0.864-2.35-1.738-3.497-2.628c-0.062-0.048-0.126-0.096-0.188-0.144c-1.218-0.947-2.412-1.911-3.589-2.886    c-0.188-0.156-0.373-0.313-0.56-0.47c-1.025-0.858-2.034-1.727-3.027-2.607c-0.378-0.335-0.756-0.67-1.129-1.008    c-0.442-0.4-0.879-0.803-1.313-1.207c-0.408-0.379-0.813-0.76-1.215-1.143c-0.42-0.4-0.837-0.801-1.249-1.204    c-0.408-0.399-0.81-0.801-1.211-1.203c-0.392-0.393-0.785-0.786-1.17-1.182c-0.422-0.434-0.835-0.872-1.249-1.311    c-0.351-0.371-0.706-0.741-1.05-1.114c-0.499-0.541-0.985-1.087-1.471-1.632c-0.275-0.308-0.554-0.614-0.825-0.924    c-0.681-0.78-1.349-1.565-2.004-2.355c-0.263-0.317-0.515-0.637-0.773-0.955c-0.433-0.533-0.866-1.067-1.287-1.604    c-0.276-0.352-0.544-0.708-0.815-1.062c-0.391-0.511-0.78-1.023-1.161-1.538c-0.268-0.363-0.531-0.728-0.794-1.093    c-0.373-0.517-0.741-1.036-1.103-1.557c-0.25-0.36-0.499-0.721-0.744-1.084c-0.365-0.539-0.723-1.08-1.076-1.622    c-0.226-0.348-0.454-0.695-0.675-1.044c-0.371-0.585-0.733-1.173-1.091-1.762c-0.188-0.309-0.379-0.616-0.564-0.926    c-0.425-0.715-0.836-1.434-1.241-2.155c-0.105-0.188-0.216-0.373-0.32-0.561c-0.514-0.928-1.012-1.861-1.493-2.799    c-0.052-0.102-0.1-0.205-0.152-0.307c-0.418-0.822-0.825-1.646-1.217-2.475c-0.129-0.272-0.251-0.547-0.377-0.82    c-0.307-0.664-0.609-1.328-0.899-1.996c-0.139-0.32-0.272-0.641-0.408-0.961c-0.265-0.628-0.524-1.256-0.774-1.887    c-0.134-0.338-0.265-0.677-0.395-1.016c-0.238-0.623-0.469-1.248-0.693-1.874c-0.122-0.339-0.243-0.679-0.36-1.019    c-0.222-0.644-0.433-1.29-0.64-1.938c-0.102-0.319-0.207-0.638-0.305-0.958c-0.219-0.713-0.424-1.428-0.624-2.145    c-0.071-0.255-0.148-0.508-0.217-0.763c-0.263-0.976-0.512-1.955-0.74-2.938c7.345-4.207,15.618-6.406,24.241-6.406    c27.013,0,48.989,21.976,48.989,48.989C123.23,333.657,119.08,344.849,111.668,353.622z M196.878,408.9h-19.752    c-14.728,0-27.291-9.442-31.956-22.589c2.03,0.333,4.077,0.627,6.136,0.895c0.003,0,0.006,0.001,0.009,0.001    c2.012,0.261,4.038,0.493,6.076,0.7c0.101,0.01,0.202,0.02,0.303,0.03c1.989,0.2,3.991,0.376,6.002,0.532    c0.08,0.006,0.16,0.013,0.24,0.019c4.192,0.321,8.43,0.558,12.712,0.742c0.022,0.001,0.045,0.002,0.067,0.003    c2.14,0.092,4.292,0.171,6.453,0.242c0.028,0.001,0.056,0.002,0.084,0.003c4.359,0.142,8.757,0.251,13.19,0.36    c4.583,0.113,9.22,0.226,13.912,0.381c3.005,0.096,5.963,0.145,8.792,0.145h7.951C221.466,401.442,209.948,408.9,196.878,408.9z     M307.454,362.343c-0.94,0.312-1.894,0.613-2.861,0.904c-0.157,0.048-0.316,0.093-0.473,0.14c-0.89,0.265-1.792,0.522-2.706,0.77    c-0.134,0.036-0.268,0.074-0.403,0.109c-1.04,0.279-2.094,0.549-3.168,0.807c-0.003,0.001-0.007,0.002-0.01,0.003    c-0.044,0.011-0.088,0.022-0.132,0.033c-0.057,0.013-0.113,0.028-0.17,0.041c-0.806,0.191-1.618,0.374-2.433,0.552    c-0.068,0.015-0.136,0.03-0.204,0.045c-0.812,0.175-1.63,0.343-2.452,0.506c-0.072,0.014-0.143,0.029-0.215,0.043    c-0.827,0.162-1.66,0.317-2.497,0.467c-0.066,0.012-0.132,0.024-0.198,0.036c-0.839,0.149-1.683,0.291-2.531,0.427    c-0.069,0.011-0.137,0.023-0.206,0.034c-0.855,0.137-1.715,0.267-2.581,0.392c-0.061,0.009-0.121,0.018-0.182,0.027    c-0.879,0.126-1.764,0.246-2.654,0.36c-0.045,0.006-0.09,0.012-0.136,0.018c-0.908,0.116-1.822,0.227-2.742,0.332    c-0.026,0.003-0.053,0.006-0.079,0.009c-0.939,0.107-1.883,0.208-2.833,0.304c-0.006,0.001-0.012,0.001-0.018,0.002    c-11.625,1.169-24.125,1.525-37.545,1.62c-2.168,0.014-4.349,0.022-6.54,0.026c-12.803-6.729-20.376-16.413-20.376-26.2    c0-18.959,26.959-34.976,58.87-34.976c31.917,0,58.881,16.017,58.881,34.976c-0.002,3.234-0.799,6.441-2.376,9.561    c-1.46,0.828-2.981,1.662-4.541,2.49c-0.424,0.224-0.853,0.436-1.28,0.653c-0.37,0.188-0.738,0.38-1.112,0.564    c-0.455,0.223-0.915,0.437-1.374,0.652c-0.397,0.186-0.793,0.373-1.194,0.555c-0.447,0.202-0.898,0.399-1.349,0.595    c-0.441,0.191-0.886,0.38-1.333,0.566c-0.418,0.174-0.836,0.346-1.258,0.514c-0.563,0.224-1.133,0.443-1.705,0.658    c-0.314,0.119-0.626,0.241-0.942,0.357c-0.926,0.339-1.863,0.669-2.816,0.986C307.536,362.317,307.495,362.33,307.454,362.343z     M341.05,462.417h-30.866v-15.53h30.866V462.417z M341.05,426.884h-30.866v-44.406c4.594-1.385,9.08-3.01,13.464-4.919    c0.199-0.086,0.396-0.177,0.594-0.264c0.643-0.285,1.286-0.57,1.925-0.867c0.427-0.198,0.849-0.404,1.272-0.607    c0.428-0.206,0.859-0.407,1.285-0.618c0.866-0.429,1.726-0.868,2.578-1.318c1.33-0.706,2.633-1.415,3.904-2.123    c1.27-0.709,2.503-1.415,3.689-2.113c0.044-0.026,0.086-0.052,0.129-0.078c0.677-0.398,1.353-0.8,2.024-1.205V426.884z     M348.492,338.781c-1.789-13.408-10.266-25.617-24.339-34.807c-14.618-9.546-33.858-14.804-54.178-14.804    c-20.315,0-39.552,5.257-54.169,14.804c-15.932,10.405-24.705,24.672-24.705,40.175c0,9.141,3.197,17.964,9.06,25.772    c-1.059-0.027-2.125-0.055-3.18-0.081c-22.101-0.543-42.976-1.056-61.143-5.963c-0.137-0.037-0.275-0.055-0.413-0.086    c-1.137-0.313-2.261-0.65-3.379-0.999c-0.119-0.042-0.235-0.09-0.356-0.128c-0.473-0.149-0.921-0.312-1.384-0.466    c8.32-11.611,12.926-25.646,12.926-40.17c0-38.043-30.95-68.992-68.992-68.992c-9.218,0-18.15,1.794-26.449,5.248    c0.346-48.501,14.083-79.367,43.174-97.023c7.135-4.335,15.195-7.898,24.438-10.809c3,6.479,7.71,12.243,13.675,16.943    c-10.378,2.617-19.832,6.16-27.739,10.964c-5.886,3.573-10.739,7.65-14.836,12.468c-3.579,4.209-3.068,10.521,1.14,14.099    c1.881,1.6,4.184,2.382,6.474,2.382c2.831,0,5.646-1.196,7.624-3.523c2.724-3.204,5.894-5.849,9.979-8.328    c21.009-12.763,58.382-14.946,92.17-15.399c4.836-0.064,9.826-0.096,15.254-0.096c15.568,0,30.899,1.809,45.629,5.336    l3.405,26.991c0.095,0.755,0.203,1.508,0.32,2.26c0.037,0.237,0.08,0.473,0.119,0.709c0.085,0.515,0.17,1.029,0.265,1.542    c0.052,0.282,0.11,0.562,0.165,0.843c0.092,0.466,0.183,0.932,0.283,1.396c0.064,0.3,0.134,0.6,0.202,0.9    c0.1,0.443,0.202,0.886,0.31,1.328c0.075,0.307,0.154,0.613,0.233,0.92c0.111,0.433,0.225,0.865,0.343,1.295    c0.085,0.309,0.173,0.618,0.261,0.926c0.123,0.426,0.249,0.851,0.378,1.274c0.094,0.307,0.189,0.614,0.287,0.92    c0.135,0.424,0.275,0.846,0.417,1.268c0.102,0.302,0.203,0.603,0.308,0.903c0.149,0.426,0.304,0.851,0.461,1.275    c0.107,0.291,0.213,0.583,0.324,0.873c0.167,0.438,0.341,0.872,0.516,1.307c0.109,0.271,0.216,0.544,0.328,0.814    c0.195,0.471,0.399,0.938,0.603,1.406c0.1,0.23,0.197,0.461,0.299,0.69c0.281,0.626,0.571,1.249,0.867,1.868    c0.032,0.066,0.061,0.134,0.093,0.2c0.331,0.686,0.672,1.367,1.022,2.043c0.104,0.201,0.214,0.399,0.32,0.599    c0.249,0.471,0.499,0.942,0.757,1.408c0.141,0.255,0.288,0.506,0.431,0.758c0.232,0.408,0.464,0.816,0.703,1.219    c0.16,0.27,0.324,0.536,0.487,0.804c0.163,0.268,0.322,0.539,0.488,0.806c0.001,0.034,0.005,0.067,0.007,0.1    c0.014,0.322,0.043,0.642,0.063,0.963c0.033,0.521,0.063,1.042,0.11,1.559c0.032,0.346,0.077,0.688,0.116,1.033    c0.055,0.488,0.108,0.977,0.176,1.463c0.05,0.355,0.112,0.708,0.169,1.061c0.076,0.47,0.151,0.941,0.24,1.408    c0.068,0.358,0.146,0.714,0.221,1.07c0.097,0.457,0.194,0.913,0.303,1.366c0.086,0.359,0.181,0.715,0.274,1.071    c0.117,0.445,0.236,0.889,0.364,1.331c0.104,0.356,0.214,0.71,0.325,1.063c0.137,0.436,0.278,0.87,0.427,1.302    c0.121,0.351,0.247,0.701,0.375,1.049c0.158,0.427,0.32,0.852,0.489,1.275c0.138,0.345,0.279,0.689,0.424,1.032    c0.178,0.419,0.362,0.835,0.551,1.249c0.154,0.338,0.31,0.675,0.471,1.01c0.198,0.411,0.404,0.818,0.613,1.224    c0.17,0.33,0.34,0.66,0.517,0.986c0.219,0.403,0.448,0.802,0.677,1.2c0.185,0.32,0.368,0.639,0.559,0.955    c0.242,0.399,0.495,0.791,0.748,1.184c0.197,0.305,0.391,0.612,0.594,0.914c0.268,0.397,0.548,0.787,0.827,1.177    c0.206,0.288,0.406,0.578,0.618,0.862c0.301,0.403,0.615,0.797,0.929,1.192c0.207,0.261,0.407,0.526,0.619,0.784    c0.356,0.432,0.727,0.853,1.097,1.274c0.185,0.211,0.363,0.427,0.552,0.636c0.567,0.625,1.149,1.24,1.749,1.841    c9.877,9.903,23.019,15.357,37.005,15.357c10.032,0,19.654-2.822,27.942-8.086c0.552-0.351,1.099-0.713,1.639-1.085    c0.727,0.502,1.47,0.976,2.22,1.439c0.182,0.112,0.364,0.223,0.547,0.333c0.753,0.452,1.512,0.89,2.285,1.302    c0.025,0.013,0.051,0.025,0.076,0.039c0.753,0.4,1.517,0.774,2.287,1.136c0.191,0.09,0.382,0.178,0.574,0.266    c0.795,0.361,1.596,0.708,2.408,1.029c0.05,0.02,0.101,0.037,0.152,0.057c0.772,0.302,1.552,0.58,2.338,0.844    c0.197,0.066,0.394,0.133,0.592,0.197c0.83,0.268,1.665,0.521,2.509,0.747c0.075,0.02,0.151,0.037,0.226,0.056    c0.785,0.207,1.577,0.391,2.372,0.561c0.201,0.043,0.402,0.086,0.604,0.127c0.859,0.173,1.723,0.329,2.593,0.459    c0.022,0.003,0.044,0.009,0.067,0.012C376.463,310.643,364.508,325.828,348.492,338.781z M413.993,265.362    c-4.944,4.956-11.211,8.105-18.008,9.121c-0.028,0.004-0.056,0.003-0.084,0.007c-0.73,0.108-1.465,0.185-2.198,0.243    c-0.122,0.01-0.244,0.019-0.367,0.027c-0.731,0.05-1.461,0.081-2.184,0.081c-7.959,0-15.505-2.88-21.418-8.145    c-0.394-0.351-0.781-0.712-1.16-1.084c-3.053-2.995-7.542-3.628-11.215-1.92c-1.006,0.467-1.955,1.1-2.792,1.92    c-6.069,5.952-14.088,9.231-22.578,9.231c-8.633,0-16.744-3.367-22.841-9.48c-0.381-0.382-0.751-0.772-1.11-1.169    c-5.385-5.954-8.321-13.587-8.305-21.672l0.015-0.504c0-0.001,0-0.003,0-0.004v-0.001c0.291-16.292,12.833-29.841,28.844-31.511    c0.517-0.054,1.037-0.095,1.561-0.124c3.926-0.214,7.782,0.259,11.466,1.411c13.053,4.082,26.853,4.082,39.905,0    c3.223-1.008,6.583-1.497,9.998-1.459c0.251,0.003,0.504,0.017,0.756,0.025c0.237,0.008,0.474,0.01,0.711,0.024    c0.524,0.029,1.045,0.071,1.562,0.124c13.943,1.453,25.257,11.907,28.143,25.333c0.002,0.008,0.004,0.016,0.005,0.024    c0.092,0.43,0.172,0.864,0.246,1.299c0.016,0.095,0.034,0.19,0.05,0.286c0.059,0.363,0.107,0.729,0.154,1.096    c0.021,0.166,0.044,0.331,0.062,0.497c0.035,0.315,0.061,0.633,0.087,0.95c0.017,0.215,0.036,0.429,0.049,0.644    c0.017,0.289,0.027,0.58,0.037,0.871c0.011,0.33,0.026,0.66,0.027,0.992C423.433,251.129,420.088,259.25,413.993,265.362z     M442.67,149.856l-7.559,59.928c-0.156,1.239-0.35,2.465-0.578,3.682c-7.178-10.682-18.194-18.588-31.131-21.692    c-0.094-0.023-0.188-0.042-0.281-0.064c-0.816-0.191-1.639-0.362-2.469-0.515c-0.229-0.042-0.458-0.084-0.688-0.123    c-0.73-0.124-1.466-0.23-2.206-0.323c-0.253-0.032-0.504-0.069-0.758-0.098c-0.964-0.107-1.933-0.195-2.912-0.249h-0.001    c-0.789-0.043-1.577-0.069-2.364-0.078c-5.507-0.06-10.94,0.735-16.169,2.37c-4.574,1.43-9.279,2.145-13.983,2.145    c-4.705,0-9.409-0.715-13.983-2.145c-5.977-1.869-12.217-2.638-18.534-2.292c-0.979,0.054-1.948,0.142-2.913,0.249    c-0.254,0.028-0.506,0.066-0.759,0.098c-0.742,0.093-1.479,0.2-2.21,0.324c-0.227,0.039-0.453,0.08-0.679,0.121    c-0.84,0.154-1.672,0.327-2.496,0.521c-0.082,0.02-0.165,0.037-0.247,0.057c-12.94,3.102-23.959,11.008-31.141,21.693    c-0.004-0.019-0.009-0.037-0.012-0.056c-0.015-0.08-0.027-0.161-0.042-0.241c-0.204-1.118-0.383-2.245-0.527-3.384l-7.558-59.927    c-0.002-0.019-0.003-0.038-0.006-0.057c-0.134-1.073-0.238-2.147-0.316-3.221c-0.07-0.99-0.112-1.98-0.134-2.969    c-0.002-0.073-0.008-0.146-0.009-0.219c-0.155-8.523,1.5-16.936,4.79-24.701c0.064-0.15,0.13-0.298,0.194-0.447    c0.315-0.727,0.648-1.447,0.992-2.162c0.104-0.215,0.202-0.433,0.309-0.647c1.217-2.457,2.617-4.831,4.17-7.117    c1.209-1.775,2.503-3.479,3.878-5.104c0.011-0.013,0.022-0.027,0.034-0.04c0.462-0.545,0.933-1.082,1.413-1.609    c0.015-0.016,0.03-0.032,0.044-0.048c0.839-0.92,1.709-1.809,2.6-2.673c0.191-0.185,0.38-0.371,0.573-0.553    c0.398-0.376,0.801-0.747,1.209-1.111c0.351-0.313,0.708-0.619,1.065-0.924c0.471-0.402,0.948-0.797,1.431-1.185    c0.487-0.389,0.977-0.774,1.475-1.148c0.268-0.202,0.538-0.401,0.81-0.598c0.725-0.525,1.455-1.042,2.201-1.533    c0.012-0.008,0.024-0.017,0.036-0.025c0.82-0.539,1.656-1.054,2.5-1.552c0.14-0.083,0.281-0.164,0.421-0.246    c1.744-1.011,3.536-1.937,5.37-2.768c0.053-0.024,0.106-0.047,0.159-0.071c7.713-3.468,16.154-5.322,24.797-5.322h42.185v-0.002    c8.644,0,17.084,1.854,24.797,5.322c0.053,0.024,0.106,0.047,0.158,0.071c1.835,0.831,3.626,1.757,5.371,2.768    c0.141,0.082,0.281,0.163,0.421,0.246c0.844,0.498,1.68,1.012,2.5,1.552c0.012,0.008,0.024,0.017,0.036,0.025    c0.746,0.491,1.476,1.008,2.201,1.533c0.271,0.197,0.541,0.396,0.81,0.598c0.498,0.373,0.988,0.758,1.475,1.148    c0.483,0.388,0.96,0.783,1.431,1.185c0.358,0.305,0.714,0.611,1.065,0.924c0.408,0.365,0.811,0.735,1.209,1.111    c0.193,0.182,0.382,0.369,0.573,0.553c0.891,0.864,1.761,1.753,2.6,2.673c0.015,0.016,0.03,0.032,0.044,0.048    c0.48,0.527,0.951,1.064,1.413,1.609c0.011,0.013,0.022,0.027,0.034,0.04c1.374,1.625,2.669,3.329,3.878,5.104    c1.554,2.288,2.956,4.664,4.174,7.124c0.103,0.207,0.198,0.417,0.298,0.625c0.347,0.721,0.683,1.448,1.001,2.181    c0.064,0.147,0.129,0.293,0.191,0.441C442.465,128.413,444.02,139.157,442.67,149.856z M455.273,73.564    c-0.373,2.868-1.272,5.579-2.597,8.054c-0.3,0.561-0.626,1.103-0.968,1.634c-0.112,0.174-0.218,0.351-0.335,0.521    c-0.332,0.487-0.691,0.952-1.058,1.411c-0.153,0.191-0.296,0.388-0.455,0.574c-0.371,0.436-0.772,0.847-1.176,1.255    c-0.174,0.175-0.333,0.361-0.513,0.531c-0.577,0.547-1.182,1.069-1.819,1.561c-0.015,0.011-0.027,0.024-0.042,0.036    c-0.557,0.429-1.137,0.817-1.725,1.192c-0.097,0.061-0.196,0.12-0.294,0.18c-0.413-0.491-0.829-0.98-1.255-1.462    c-2.607-2.957-5.415-5.692-8.386-8.206c1.178-0.738,2.326-1.535,3.436-2.388c6.621-5.096,11.52-11.932,14.305-19.563    C454.922,63.318,455.943,68.421,455.273,73.564z M477.509,121.553c-4.117,1.803-10.224,1.259-17.479-1.501    c-0.12-0.418-0.259-0.83-0.386-1.246c-0.046-0.151-0.093-0.301-0.14-0.452c-0.334-1.069-0.69-2.132-1.069-3.188    c-0.075-0.208-0.146-0.418-0.222-0.626c-0.167-0.453-0.341-0.904-0.516-1.354c-0.188-0.485-0.382-0.967-0.579-1.448    c-0.131-0.319-0.259-0.64-0.394-0.958c-0.356-0.836-0.728-1.665-1.113-2.49c-0.029-0.062-0.055-0.125-0.084-0.187    c0.205-0.484,0.415-0.958,0.628-1.421c0.058-0.039,0.111-0.082,0.169-0.121c0.74-0.501,1.471-1.016,2.184-1.565    c0.535-0.412,1.057-0.837,1.57-1.271c0.174-0.147,0.341-0.299,0.512-0.447c0.332-0.29,0.663-0.581,0.985-0.88    c0.207-0.191,0.408-0.386,0.611-0.581c0.268-0.258,0.534-0.519,0.794-0.783c0.23-0.232,0.456-0.467,0.68-0.704    c0.205-0.217,0.406-0.437,0.606-0.659c0.264-0.291,0.526-0.583,0.781-0.881c0.103-0.12,0.203-0.244,0.305-0.366    c1.102-1.313,2.125-2.682,3.06-4.11c6.915-1.364,16.162,2.341,22.397,5.657C488.689,108.044,484.257,118.596,477.509,121.553z" fill="#FFFFFF"/>
	</g>
</g>
<g>
	<g>
		<path d="M407.525,141.186h-8.732c-5.523,0-10.002,4.478-10.002,10.002s4.479,10.002,10.002,10.002h8.732    c5.523,0,10.002-4.478,10.002-10.002S413.048,141.186,407.525,141.186z" fill="#FFFFFF"/>
	</g>
</g>
<g>
	<g>
		<path d="M324.346,141.186h-8.732c-5.524,0-10.002,4.478-10.002,10.002s4.478,10.002,10.002,10.002h8.732    c5.523,0,10.002-4.478,10.002-10.002S329.869,141.186,324.346,141.186z" fill="#FFFFFF"/>
	</g>
</g>
<g>
	<g>
		<path d="M388.438,229.87c-5.524,0-10.002,4.478-10.002,10.002v3.257c0,5.524,4.478,10.002,10.002,10.002    c5.523,0,10.002-4.478,10.002-10.002v-3.257C398.439,234.348,393.961,229.87,388.438,229.87z" fill="#FFFFFF"/>
	</g>
</g>
<g>
	<g>
		<path d="M334.703,229.87c-5.523,0-10.002,4.478-10.002,10.002v3.257c0,5.524,4.479,10.002,10.002,10.002    c5.523,0,10.002-4.478,10.002-10.002v-3.257C344.705,234.348,340.227,229.87,334.703,229.87z" fill="#FFFFFF"/>
	</g>
</g>
<g>
	<g>
		<path d="M84.633,223.053c-0.46-0.46-0.97-0.88-1.52-1.25c-0.54-0.36-1.12-0.671-1.73-0.921c-0.6-0.25-1.23-0.44-1.87-0.57    c-1.29-0.26-2.61-0.26-3.901,0c-0.64,0.13-1.27,0.32-1.88,0.57c-0.6,0.25-1.18,0.56-1.72,0.921c-0.55,0.37-1.06,0.79-1.52,1.25    c-1.86,1.86-2.931,4.431-2.931,7.071c0,0.65,0.07,1.31,0.2,1.95c0.12,0.64,0.32,1.27,0.57,1.87c0.25,0.61,0.56,1.19,0.92,1.73    c0.36,0.55,0.78,1.06,1.24,1.52s0.97,0.88,1.52,1.24c0.54,0.36,1.12,0.67,1.72,0.92c0.61,0.25,1.24,0.44,1.88,0.57    c0.64,0.13,1.3,0.2,1.95,0.2c0.65,0,1.31-0.07,1.95-0.2s1.27-0.32,1.87-0.57c0.61-0.25,1.19-0.56,1.73-0.92    c0.55-0.36,1.06-0.78,1.52-1.24s0.88-0.97,1.24-1.52c0.36-0.54,0.67-1.12,0.92-1.73c0.25-0.6,0.45-1.23,0.57-1.87    c0.13-0.64,0.2-1.3,0.2-1.95C87.563,227.484,86.493,224.913,84.633,223.053z" fill="#FFFFFF"/>
	</g>
</g>
<g>
</g>
<g>
</g>
<g>
</g>
<g>
</g>
<g>
</g>
<g>
</g>
<g>
</g>
<g>
</g>
<g>
</g>
<g>
</g>
<g>
</g>
<g>
</g>
<g>
</g>
<g>
</g>
<g>
</g>
</svg>
