<svg xmlns="http://www.w3.org/2000/svg" viewBox="0 0 280.38 280.39"><defs><style>.cls-1,.cls-11,.cls-12,.cls-17,.cls-3,.cls-7{fill:#3d3d3d;}.cls-2,.cls-5,.cls-6{fill:none;stroke:#3d3d3d;stroke-miterlimit:10;}.cls-3{font-size:40.47px;letter-spacing:0.06em;}.cls-11,.cls-12,.cls-3,.cls-7{font-family:NimbusSanCon-Bol, Nimbus Sans Cond;font-weight:700;}.cls-4{letter-spacing:0.05em;}.cls-5,.cls-6{stroke-width:1.63px;}.cls-6{stroke-dasharray:4.44 4.44;}.cls-11,.cls-7{font-size:16.39px;}.cls-7{letter-spacing:0.11em;}.cls-8{letter-spacing:0.11em;}.cls-9{letter-spacing:0.06em;}.cls-10{letter-spacing:0.1em;}.cls-11{letter-spacing:0.08em;}.cls-12{font-size:23.77px;}.cls-13{letter-spacing:-0.01em;}.cls-14{letter-spacing:0em;}.cls-15{letter-spacing:0.01em;}.cls-16{letter-spacing:0.01em;}.cls-17{font-size:15.01px;font-family:Azote, Azote;letter-spacing:0.04em;}.cls-18{letter-spacing:0.05em;}.cls-19{letter-spacing:0.02em;}</style></defs><title>farm-logo</title><g id="Layer_2" data-name="Layer 2"><g id="objects"><path class="cls-1" d="M140.19,7.3C66.92,7.3,7.3,66.93,7.3,140.21S66.92,273.08,140.19,273.08s132.88-59.6,132.88-132.88S213.46,7.3,140.19,7.3Zm0,260c-70.09,0-127.11-57-127.11-127.09S70.1,13.07,140.19,13.07s127.1,57,127.1,127.13A127.24,127.24,0,0,1,140.19,267.3Z"/><path class="cls-2" d="M140.19.5C63.17.5.5,63.18.5,140.21S63.17,279.89,140.19,279.89s139.68-62.65,139.68-139.68S217.21.5,140.19.5Zm0,273.31c-73.68,0-133.62-59.93-133.62-133.6S66.51,6.56,140.19,6.56s133.61,60,133.61,133.64S213.86,273.81,140.19,273.81Z"/><path class="cls-1" d="M71.2,117.55l.65,0,.36.47.47,1.47.41,1.44.61,1.42.36,1.45c0,.24,0,.36-.06.61l-.5.36-1.52.69-1.63.5c-1.3.36-1.95.55-3.24.93l-1.58.52-1.61.59c-1.28.44-1.92.66-3.19,1.12l-1.51.85-1.55.63H57l-.44-.42-.66-1.34-.45-1.48L54.87,126l-.43-1.44c0-.22,0-.33,0-.55l.35-.35,1.11-.5,1.18-.47.43-.42.07-.53-.49-1.66-.72-1.57-1.26-3.22-1.36-3.18-.63-1.61-.58-1.63-.5-1.71-.73-1.57-.46-.27-.65.15-1.24.45-1.22.5-.62,0-.36-.46L46,104.63l-.47-1.42-.69-1.38-.34-1.42-.13-.6.42-.47,1.93-.83,2.12-.64,2-.71,2-.75,2-.78,2-.81c1.6-.56,2.4-.83,4-1.37s2.43-.74,4.05-1.21l2-.68,2-.7c1.63-.44,2.45-.66,4.08-1.07l2-.65,2.09-.45.6.08.34.44.62,1.53.41,1.63.7,3.19.63,1.58.35,1.6-.26.5-.64.31-1.52.54-1.62.39L75.2,101l-1.62.37H72.9l-.44-.36-.34-1-.29-1-.42-.46-.55-.13-2.35.71-2.27,1-2.45.6-2.25.85-.08.27.3.39.8,2.19.79,2.15.29.35.41.06,2-.72c2.41-.79,3.62-1.17,6-1.89l.43-.23.24.07.64,1.61c.11.69.17,1,.29,1.72l.65,1.66.55,1.69.08.46-.28.33-2,.7-2.06.5c-1.64.48-2.46.73-4.1,1.24l-.4.43c0,.21,0,.32,0,.54l.24.71.31.74.27.79.32.78.31.44.56.06,1.49-.64ZM76,121.14l-.45-1.47-.35-.48-.64,0-.73.18.34,1.26.62,1.47.36,1.5.06.18,0,.38c0,.12,0,.18,0,.3l0,.5-.29.38-.24.22-.56.32-.49.21-1.37.5-1.63.5c-1.29.36-1.94.55-3.23.93l-1.57.52-1.56.58c-1.26.43-1.88.65-3.13,1.1l-1.37.79.29.59.43.43.58,0,1.54-.6,1.5-.82c1.27-.44,1.9-.65,3.17-1.07l1.6-.57,1.57-.49c1.29-.36,1.93-.54,3.22-.88l1.62-.47,1.51-.67.5-.35.07-.61L77,124l-.59-1.43Zm-17.31,6.42v.1l0,0,.24.06.23-.09-.25-.1Zm2.8-1.7,0,0H61.3l-.22.13,0,0h-.15l-.08.08.08.22.27.15.17-.11c0-.1,0-.15,0-.25l.12-.1,0-.06.07-.08ZM60.12,122l-.06.12.08.07h.11l0,0,0-.06-.08-.07Zm.83,2.18,0,0,.07.17.14-.05,0,0-.08-.07Zm.89-.19-.06,0v.1l0,.06c0,.06,0,.09,0,.15l.08.22.06,0,0,.06-.08.08h-.11l0,.06,0,0,.1.11H62l0-.06s0-.06,0-.11l-.13-.35,0-.06.08-.08L62,124ZM57.7,112.71l0,.06s0,.07,0,.11l.26,0,.28-.16-.3,0Zm3.41,8.2.14.1,0-.13-.16-.14Zm1.83,1.61-.08-.22v-.15l-.08-.07-.22,0-.1,0-.08.08,0,.06-.09,0-.08.08.08.07.13.05.08.07.19.08.17,0,.13.05h.11l0-.1-.07,0Zm-3.74-10.76-.08-.07-.13-.05-.07.12,0,.13.08.07h.12l.08-.08Zm1.1,2.68-.1,0,0,.1.05.13.19.08.1,0,.07-.12-.11-.16Zm.29-1.5-.1,0-.06.12,0,.11.07,0h.11l.07-.12,0-.11Zm0-1.15.16.14.3,0-.36-.52-.51.14-.13.1-.07.12.31.09Zm3,8.69-.18.11c0,.06,0,.09,0,.15l.25.11.16-.16,0-.17-.17,0Zm-3.57-9.88.08-.08,0-.11,0-.09-.13-.05-.08.08c0,.06,0,.09,0,.15l.08.07Zm2.53,5.79.08.22.11.16.11-.14.06-.12,0-.21-.24-.06Zm-.14-3.17.05-.17-.17-.18-.26,0-.18.11c0,.08,0,.12,0,.19l.15.1.21,0Zm-.33-1.42-.32-.58,0-.24v-.3l0-.28-.26-.11-.18.12.06.18.11.46.17.48.19.23-.15.2-.07.27.41-.1Zm2.62,7.1,0,0,0,0-.38.28c0,.18,0,.27,0,.45l.24-.23.48-.17,0-.24Zm1.52,5.8h-.11l.13.35.2.13.14,0,0-.06-.22-.17Zm-.41-3.87.08-.23-.11-.16-.1,0,0,.06-.15.2.09.12.11.31.08.37.25.11,0-.1c0-.06,0-.09,0-.15l-.16-.29Zm-1.25-3.72-.11-.16,0-.17,0-.13-.13.09c0,.06,0,.09,0,.15l0,.24.25.11Zm-2.31-6.91-.07.27.2.08.17-.16v-.3h-.17Zm1.44-.85.18,0,.07-.12-.11-.16-.18.11-.25-.06-.2.07-.18-.19-.23,0-.28.15-.14.25.11.16.26,0,.11.16.06.18.35.37.13-.44ZM59.12,96.42l.08-.13v-.15l-.05,0-.07,0-.14.1,0,.09.09.07Zm5.58,15.41-.17.16-.09.23.1.12h.16l.18-.11,0-.21-.1-.12ZM64,109.67l-.09.08,0,.13v.19h.16l.13-.1,0-.21-.1-.11Zm1.45,2.46-.29.1.14.1.18,0,.07-.12Zm1.69.12-.29-.05-.34,0-.19-.08-.21-.62.23-.47-.06-.52.41-.43-.29-.2-.39,0-.16.35-.12.29.26.11.05.33-.4.13h-.33l-.17.31-.07.27.17.19.22,0,.09-.23.13-.09.19.08.12.35.24.22,0,.28.34,0,.13.21.14.25.58-.24.47-.4-.45,0Zm-7-16,.18-.16.19-.31c0-.08,0-.12,0-.2l-.22-.12-.2.12c0,.06,0,.09,0,.15l-.09.42.08.07Zm.37.91,0,.11.39.11.32-.26.13-.14L61.19,97l-.44.1Zm4.21,12.08.09.27.28.15h.11l.1,0,0-.24-.22-.17,0-.09-.08-.07,0-.21-.21-.12-.16.2.13.2v0Zm1.19-.45-.07.12.06.18,0,.21-.18.11-.33.36c0,.18,0,.27,0,.45l.13.06.24-.28,0-.36.2-.22.27-.19.1-.18-.07-.22-.14-.1ZM60.59,96.22l.24,0,.05,0,0-.11-.15-.1-.23,0Zm4.77,11.5-.28.34-.16.35c0,.1,0,.14,0,.24l.26,0,.27.15.29-.14.14-.24-.17-.19-.12-.35.06-.17-.11-.16-.1,0Zm-3.8-9.31.15.1.26-.09v0l.05,0,0-.06-.13-.05-.16.05h-.17Zm2.79,7.29,1.26-.47.2-.07-.57-1.39-.2-.43.08-.27,2.24-.82,2.4-.65,1.33-.45-.26-.7-.23-.76-1.77.54-2.31,1-2.44.59-1,.39.66,1.8Zm12.77,3.53-.27-1.72-.62-1.62-.24-.08-.43.22-.86.25.17,1,.6,1.53.56,1.74.09.7,0,.33c0,.15,0,.23,0,.39l-.17.34-.3.24-.29.09-.43.17-2.08.73-2,.49c-1.38.4-2.07.6-3.45,1l.13.4.29.69.27.8.18.38.85-.33.53-.17,0-.13-.08-.42V116l.2-.21.28-.14c1.62-.49,2.43-.72,4.06-1.18l2-.46,2-.67.28-.32-.08-.46-.54-1.69Zm-15-12.09L61.86,97l-.19,0,0,.06,0,.09.2.08Zm5.52,14.16-.49-.14-.34,0-.11.33.36.42.62-.11.25-.23Zm-1.51-3.58.06.18.14.25.09.12.16.14.27-.87-.23,0-.2.07-.35,0-.25.28ZM62.77,96.58l-.08-.22-.21-.12-.09.08,0,.11-.11.38h.29Zm3.71,13,.12.2.24.07,0-.06,0-.1-.16-.15ZM62.62,97l0,.21.19,0,.06-.17,0-.28Zm4.45,11.66,0-.06,0-.13-.3.1-.07.12.13.05h.11Zm.41,1.93h.6l0,0,.08-.08.19-.26-.18-.23-.25.08-.41.08-.41-.06ZM62.77,95.15l.16-.05c0-.08,0-.12,0-.19l.32-.11.23.17h.29l.28,0,.3-.15.13-.14-.16-.14H64.2l-.33.06-.27-.11-.11-.16v0l-.14.1,0,.06.2.08-.38.08-.34.06-.18.16-.06.17.11.16Zm4.79,12.63,0,0-.25.08L67,108l.36.08.24-.13C67.55,107.87,67.56,107.85,67.56,107.79Zm1,2.62-.15,0-.07.12-.19.26-.18.3v0l.06,0,.32-.2.4-.28c0-.06,0-.09,0-.15l-.09-.12ZM63.79,96.68c0-.08,0-.12,0-.19l-.15-.1-.16-.14-.12.19,0,.21.16.14h.12Zm4.44,12.85L68,109.4l-.26-.11.25.41.81-.41-.37-.13Zm.42-1.26.29.05.37-.22L69,108h-.28l0,0-.09.08-.52-.08-.4.47.48-.06Zm-3.18-10-.2-.08-.21.07,0,.24h.34l.19-.11.17-.2Zm-1.28-4.2.09-.08,0-.09-.2-.08-.09.08L64,94l.08.07Zm5.19,14.37c-.12.59-.18.88-.3,1.47l.61-.49.37-.56,0-.33-.34-.19Zm-1-1.12,0,.28.3-.1c0-.12,0-.18,0-.3l-.26-.11-.14.09Zm1.63,2.71-.21-.13-.29-.05-.12.14-.05.17.15.15.21,0,.14-.09ZM65.83,97.41l.2-.11.05-.21L65.94,97h-.17l-.18.15-.06.17.19,0Zm4.33,13.17-.13.09c0,.08,0,.12,0,.19l0,.09h.16l.12-.14.11-.18-.12-.06ZM65.32,95.07l.08-.12-.09-.12-.16.05,0,.06,0,.11Zm1,3.06,0-.11-.08-.07-.1,0-.09.08,0,.06.24,0Zm2.92,9.26.18.23.15,0,.09-.07-.1-.31-.27-.16Zm1.14,1.55-.07.12,0,.11v0l.08.07.09-.08,0-.06,0-.09Zm-.06-.91-.14.09,0,.13.08.07,0,0,.14-.09c0-.08,0-.12,0-.19l-.1,0ZM66.82,95.58l.07,0,.05-.21,0-.13-.07,0-.1,0H66.6l-.16,0-.14.09.08.07h.12l.13.06h.17ZM66.44,94l.15-.1,0-.06-.09-.12h-.17l-.11,0-.07.17.13.06Zm.66,2.34v.15l.07.22.26-.08,0-.24-.22-.13Zm4,11.52.36.28h.33l.07-.12,0-.11h-.33ZM69.22,97.58l-.26.08-.33.05h-.17l-.05,0,0,.11.13.25.57,0,.11,0,.16-.25Zm-1.15-3.41,0,.1.24.22,0-.06.41,0,.17-.2.05,0c0-.2,0-.31.08-.51l-.28-.16-.36.16-.31-.05-.29.19.11.16Zm.92,3,.2-.3-.24,0-.14.09v.15l.08.07Zm.12-1.3-.37-.08-.13-.06h-.12v.15l.09.12.1.31c0,.08,0,.12,0,.19l.21.13.28,0,.16-.24.2-.11-.11-.16ZM68.79,95l-.16,0-.12.18v.19l.07,0h.17l.44-.08.41-.17-.43-.07-.31-.06Zm3.73,12.58-.15,0v.15l.13.06.17-.15-.08-.07Zm-3.92-15,.05-.21-.07,0-.11,0-.12.18.08.27Zm0,.54.11.16.11,0c0-.08,0-.12,0-.19L68.64,93Zm1.5,4,0-.14.05-.21-.2-.08-.18.15.11.16,0,.09,0,.06.07.22.26.12h.12l0-.06v-.2Zm.46-3.3-.26-.31-.42-.22h-.05l-.24.17-.08.32-.07,0-.08.32-.06.36.42.26h.17l.3-.14.05,0,.24-.36v0Zm-1.42-1.48.16-.24-.08-.07h-.05l-.15.09,0,.11,0,.09ZM70,94.92c0,.08,0,.12,0,.19l-.13.14.07.22.05,0,.18-.15.11-.23c0-.08,0-.12,0-.2v0ZM71,94.65l-.14-.1-.16,0,.09.31-.08.32.09.12.19,0,.08-.31.11,0-.06-.42Zm-.46-1.37.15-.09.11,0,.07,0,.11,0,.12.21-.12.18,0,.13.21-.06.08-.12.11,0,.67-.48h.06v-.15l.08-.12c0-.12,0-.18,0-.3l-.57,0-.91.26-.09.07-.15.09-.25.12-.11.23.24,0Zm1.18,2.87.16,0h.17l0-.06.05-.21-.08-.08v0l-.29-.21h-.12l-.09.08-.1,0-.07.17Zm.85,1.36-.13.13-.15.09-.09.07h.05l.09-.08.14-.09Zm-.07-2.65.08-.12.14-.13.08-.31,0-.15.05-.21.15-.09.09-.07.29-.18.32-.09.09-.07,0-.13h-.17l-.29,0-.16.24-.51,0-.18,0-.2-.09,0-.13h-.12l-.2.11,0,.1-.08.12.08.27c0,.06,0,.09,0,.15s0,.12,0,.19l-.15.09-.09.08,0,.15,0,.06,0,.14,0,.15,0,.13.08.08h.17l.13.06.16.15.12.21.21-.06.3-.14,0-.11,0-.06.15-.09.13-.13.09-.08,0-.13,0-.11-.05,0-.07,0-.09.08,0,.06-.13.13-.15.09h-.23l0-.06Zm-.26,1.68.05.18.09-.08.08-.12.11-.42-.06-.22L72.4,96v.15l-.08.12Zm.39.57h-.05l-.07.17Zm.09.12v0l0-.06.09-.08L73,97l-.09.08Zm.59-1.92-.06,0h-.12l-.1,0-.07.16,0,.18.21-.06v0l.09-.08.08-.12-.07,0Zm.29,1.62-.09.08,0,.06v0l.1,0,0-.06h0l0-.1Zm.06-.4-.15.09-.08.12v0l.05,0,0-.06.15-.09,0-.11Zm9.58.77-.66-3.2-.39-1.63-.6-1.54-.34-.45-.59-.1L80,90.5l.37,1.5.34,1.6L81,95.15l.63,1.62L82,98.41l0,.33,0,.54-.13.37-.41.34-1.13.53-1.77.61-1.56.38-1.26.44.2.72.43.37H77l1.61-.34,1.56-.55,1.6-.36,1.51-.52L84,101l.26-.5-.33-1.6Zm-8.43,1.09-.08.12,0,.09.07,0,.09-.07,0-.1Zm-1.26-4.3v0l.06,0,.1-.08.12-.18h-.12l-.09.07Zm1,1-.12.18-.17.19-.11.22-.07.16.11,0,.15-.09.2-.3.07-.16,0-.11v0Zm.15-.91v0l-.25.12-.08.12-.15.09v.15l0,.1.11,0,.06,0,.15-.09.27-.27v0l0-.1Zm-1-2.24.23,0,.2-.1.14-.13-.13-.06-.28,0-.16,0-.09.12.07,0Zm1.91,2.38L75.1,95H75c0,.06,0,.09,0,.15v0l.13.06h.12l.06,0,.28-.22.11-.23.09-.31,0-.37-.11,0Zm.27,1-.25.12-.23.21.06,0,.08.08.07,0,.32-.09.08-.12v-.15l-.08-.08Zm-.79-1.87.2-.1.18-.19,0-.09L75.29,93h-.12l-.14.13-.08.12.08.07Zm.74-1.51.17-.24.15-.09H75.9l-.21.06-.14.13-.49.32v0l.28,0ZM76.52,96l-.08.12,0,.33.14.11.16.15c0-.16,0-.23,0-.39l-.14-.3Zm.35-1.88,0-.3-.12,0-.25.36-.26.07-.06.21.07.27.13.06.08.08.13-.13.09-.07.08-.36Zm.63.46-.26-.13-.11,0H77l0,.15,0,.09.12,0,.13.06Zm.25.08-.25.16.08.27.12,0,.11,0,.15-.09-.05-.18Zm-.42-3.8-.15.09-.31.13h.29l-.09.31.08.08.07,0,.16,0,.13-.18L77.4,91Zm.85.17-.07,0v.2c0,.06,0,.09,0,.15l.07.27.12-.18c0-.13,0-.2,0-.33Z"/><path class="cls-1" d="M115.29,115.73l-1.83.12-1.83.19h-.25l-.25-.06-.27-.2-.18-.21-.14-.31c-.09-.93-.13-1.4-.22-2.33l-.16-1.2-.12-1.21.09-.44.21-.31.28-.18.53-.17.4-.05.38-.19.21-.31.07-.24.06-.29c0-.1,0-.14,0-.24l0-.23-.32-.57-.27-.53-.18-.26-.23-.21-.27-.15-.46,0-1.89.35-1.83.41c-1.66.13-2.49.2-4.14.37h0l-1.74.34-1.7.3-.46.28-.16.51-.13.69-.14.64.06.32.15.26.31.27.29.18.36,0,.94-.17.36,0,.38.12.31.32.22.39.22,1.24.26,1.19.16,1.2.2,1.15,0,.47-.23.37-.3.24-.37.11c-1.48.3-2.22.46-3.7.79s-2.34.47-3.89.81-2.38.41-4,.71-2.17.58-3.61,1l-.29,0-.37-.05-.35-.2-.22-.47L84.86,119l-.29-1.32-.45-1.33-.44-1.28-.07-.46.2-.44.34-.28.38-.15,2.42-.7.32-.17.18-.33c.23-1.09.35-1.64.6-2.73l.48-1.55.47-1.64.39-1.57.45-1.58.4-1.61.42-1.57.48-1.58.48-1.63.38-1.6c.14-.7.22-1,.36-1.74,0-.13,0-.2,0-.33l-.27-.23-.57-.08-2,.42-.56,0-.44-.24-.24-.33-.1-.22-.34-1.31-.35-1.36-.57-2.65c0-.21,0-.31,0-.52l.29-.5.52-.25,1.91-.45,1.85-.46,2-.25c1.55-.22,2.33-.32,3.89-.51l1.93-.28c1.55-.33,2.33-.49,3.89-.8l.11,0c1.46-.18,2.2-.26,3.66-.42h.39l.29.06.24.16.2.26c.73,1.11,1.09,1.67,1.8,2.78L111,87.7l1,1.47,1.14,1.42,1.13,1.47,1,1.49,1,1.5.95,1.55.93,1.5.88,1.61.82,1.57.85,1.57.84,1.52.92,1.33.9,1.24.32.26.36.07,1.15-.08,1.19-.12.3.08.26.17.21.17.21.22.16.18c0,.09,0,.14,0,.23l.13,1.4.13,1.35,0,1.45,0,1.36,0,.24-.08.29-.18.2-.19.15-.24.11-.29.06c-1.46.13-2.19.2-3.65.35l-1.94,0-2,.09-1.91.29-2,.26Zm-10.34-.64.25,1.19.14,1.21.19,1.15,0,.43-.18.36-.26.18-.4.21c-1.47.28-2.2.43-3.66.74l-2.68.51c-1.57.24-2.36.36-3.93.63s-2.15.53-3.58.91l-.39,0-.41,0-.27-.32-.15-.4-.13-.55.85-.2c1.54-.29,2.31-.42,3.86-.68s2.38-.51,4-.82,2.23-.49,3.72-.8l.42-.12.56-.15.36-.16.38-.35.16-.5,0-.42-.08-.75-.2-1.2-.16-1.2-.26-1.23,0-.23.46.06.36,0,.45.3.35.32.09.22ZM90.5,112.38l-.08-.13-.11,0,0,.06,0,.14.11,0,0-.06Zm.28-.83-.16-.25-.21,0-.18.14,0,.09.12.07.25.18.11,0,.1,0Zm.33-.36-.06,0-.15,0-.07.16H91l.12-.12Zm.06-2.07.17-.18.06-.21h.05v-.24l-.08-.13-.2,0-.08.11-.06.2-.37.46,0,.25,0,.15.18.1h.16l.14-.08,0-.14-.12-.07.06-.21Zm-.68-.71.11,0,.1,0,0-.1v0l-.06,0-.09.07h0Zm1.7,3.26-.12-.31-.07-.08-.11,0-.09.31c0,.1,0,.14,0,.24l.07.08.26-.2Zm.22-1.34-.14-.16-.22,0-.19.09,0,.09.06,0,.26.23Zm0,.42-.18.09-.12.17.06,0,.1,0,.14-.08Zm-1.08-3.83.12.07.1,0,.06-.21-.07-.08-.15,0Zm-.2-1.91.09.17.27,0-.1-.22-.23-.09,0,.05Zm.83,3.12,0-.1.09-.07-.06,0v0l-.15,0,0,.1.06,0Zm-.81-3.5.12.07h.05l0-.06,0-.09-.18-.1,0,.06Zm1.63,4.9-.17-.06-.3.06.09.17.18.1.15,0,.09-.07Zm0,.9-.08-.12-.28-.09.09.17.17.1Zm-1-5.19.2,0,0-.09-.17-.06-.19.09Zm1.17.33-.14-.16h0l-.42-.25-.29.11v.28l-.17.18c0,.1,0,.14,0,.24h.21l.2,0,.06,0,.3-.06v0Zm.43,5.78v0l-.07-.08-.09.07,0,.15,0,.1v0l.2,0C93.51,111.45,93.51,111.42,93.51,111.34Zm0,0,0,.05Zm-.26-4.19-.12-.07h-.21l0,.06-.06.21,0,.14.1,0,0-.1.15,0,.08-.11h0ZM92.45,104l.14.16.13-.12.09-.07,0-.14.12-.17h.26l.08.13.16,0,0-.1-.07-.08,0-.09-.19-.39-.18-.11-.33-.07-.17.23-.08.4Zm.69,1,.25.19.25-.05.18-.13.08-.11c0-.1,0-.14,0-.24v0l-.22-.29h0l-.25-.19-.41.08-.34.17,0,.06,0,.23.24.14v0Zm-.61-2.69.06,0,.16,0,.07-.2-.07-.08-.15.08-.08.11Zm1.86,6-.17-.11-.09.07-.08.11,0,.18.13.12.13-.12.08-.11Zm-.52-2.8-.17.18-.1,0,0,.1.14.16.17.06.1,0,.13-.41,0-.34Zm-1.38-5.44.09.17,0-.1,0-.06,0-.15-.16,0Zm1.86,7.29.06-.2-.23-.1-.18.13,0,.09Zm-.89-4.11.18.11.27,0,.17.06h.16l0,.18.17.06.06,0,.22.05h.21l.22-.23.49-.19.05-.25.05-.29-.12-.07,0-.14-.14-.16-.2,0-.09.07.08.13.1.22-.12.21-.1,0L95,103l-.23-.1H94.6l-.17-.06-.08-.13-.09-.17,0-.06v0l0-.1v0l-.1,0-.27.24.19.15-.16.27-.33.21h-.17l0,.06ZM93,100.71l.08.13,0,.14.22-.24h.05l-.08-.13-.13-.12-.15,0s0,0,0,0Zm2.14,5.38-.14-.16,0-.18-.16,0-.28.15-.37.26,0,.06.12.07.15,0,.16,0,.12.07.17.06.18-.13Zm0,2.91-.09-.17,0,.1,0,.15-.19.09,0,.15.22.1.16-.22Zm-1.6-7.68-.11,0-.07-.08-.08.11,0,.15.11,0,.15.21h.05l.08-.16Zm.53,3.42c0,.08,0,.12,0,.19l.12.07.09.17h.26l0-.23-.18-.11-.17-.06Zm.84-.31-.19-.15,0-.09-.38-.07h0l-.19.09,0,.09.33.08.25.19.15,0Zm.33,4-.06,0-.1,0,0,.05,0,.09.07.08.13-.17Zm-1.57-9.69.09.17H94c0-.08,0-.12,0-.19l-.17-.06-.1,0Zm1.94,7.66-.15-.25,0,.05-.09.07,0,.14.12.07.1,0ZM93.94,99l.15.21.24.1,0-.06,0-.09-.13-.12Zm.89,2.35,0-.15-.11,0-.06,0-.1.07-.17.22.06,0,.11,0Zm-.28-2-.18.18-.1,0-.09.11.07.08.32,0v0l.17.06.09-.07v-.24l-.09-.17Zm.32,2.74-.1,0,0,.1.06,0,.07.08.08-.11v0Zm.66,3.11-.16,0,0,.1v0l.17.06.19-.08Zm.89,1.35-.09-.22h-.26l-.06.2-.1.26-.08.11.07.08h.31l.24-.38Zm-.51-2.37.19-.37-.08-.13-.12-.07-.2,0-.32.25,0,.06,0,.19.13.12Zm.59,1.45-.17-.06-.19.09-.11,0H96l-.18-.11-.13.12.08.13H96v0h0l.27,0,.19-.09,0-.06Zm-1.46-5.38.18.11.25-.1h.32l.09-.07v0L95.8,100l-.1-.22h-.22l-.33.21Zm.74,1.33.12-.21,0-.15-.17-.06-.21,0-.12.17,0,.18.12.07Zm-.79-3,.12,0,.1,0,.07-.2-.16-.3-.11.26C95,98.51,95,98.56,95,98.65Zm1,4,.24-.14.11-.26,0-.14-.1,0-.13.12-.17.22,0,.15Zm-.31-3.27v0l-.24-.14-.13.17,0,.18.22.05h.22l0-.18Zm1.16,3.87-.18-.11-.22-.05-.25,0c0,.08,0,.12,0,.19l.2.2.28.09.19-.08C96.84,103.42,96.84,103.36,96.84,103.24Zm-2.35-11,.12.07.1-.06,0-.06,0-.09-.07-.08,0,.05-.1.07Zm2.23,8.37-.19-.15h-.27l-.18.18,0,.18h.32Zm1.22,3.71-.17-.06-.25.09-.11,0-.09.07,0,.18.18.11.15,0,.07-.2ZM95.05,91.18l.27.28.18.06,0,.14-.08.16.08.13.16,0,.1-.07.08-.16-.09-.17-.19-.11-.2-.15L95.35,91l-.2-.2h-.06l0,.06C95,91,95.05,91,95.05,91.18Zm1.45,4.57.06-.25-.25.14-.12.21.12.07ZM98,103.08l-.12-.07-.1,0,0,.1.06,0,.15,0Zm-.72-2.76.11,0,.1,0,0-.1-.06,0v0l-.16,0,0,.05Zm.67,1.63-.07-.08-.1,0-.1.06.08.13.12.07.08-.11ZM96.24,93.1l-.13.17.07.08.28,0,.25-.14,0-.19-.19-.11-.06-.32-.24.19C96.24,92.92,96.24,93,96.24,93.1Zm1.32,6.59h.05l0-.1,0-.06-.07-.08-.1,0-.09.11,0,.09Zm.21,1.15.11,0,.12.08,0-.06v0l-.06,0h-.05l-.12-.07ZM99.1,103l-.06,0v0l-.29.15-.11.26,0,.15-.26,0-.08.11.07.08.06,0,.15,0,.09-.06.07-.2.08-.16.19-.13Zm-1.66-5.63-.06,0-.1,0,0,.06v0l.07.08ZM110,108.58l-.5.4-.5,0-2,.15-1.73.31c-1.48.23-2.23.36-3.71.61l-.51-.29h-.81l-.69.13.08-.4.1-.59,1.39-.25,1.68-.33c1.61-.16,2.42-.23,4-.35l2.07-.44,1.63-.31.11.08.27.48.2.4,0,.1-.73.19ZM98.79,100h-.27l-.11,0,0,.15.16,0,.2-.08v0Zm-.25-12.09.1-.07,0-.23-.12-.07-.12,0-.07-.08-.12-.07-.26.09-.15.12-.19.22,0,.15-.09.11.07.08.17,0,.1-.07,0-.06.38-.07.29,0Zm2.33,17-.12-.07-.14.07,0,.09.06,0,0,.09ZM98.94,90.63l-.18-.11v0l-.12-.08,0,.06v0l.18.06v0h.05l.06,0Zm7.64,7.64-.09-.27-.69-1.08L105,95.8l-.64-1-.6-1.09-.31-.28-.49,0-.48.08-.41.16-.21.36-.24,1.17-.28,1.23L101,97.62l-.39,1.15,0,.39.17.4.37.32.4.17h.37l1.92-.26,1.87-.19.4-.15.37-.38.15-.45C106.58,98.46,106.58,98.4,106.58,98.26ZM102.16,103l.17.07.13-.16,0-.15-.17-.11-.08-.13-.15.07-.18.17-.12.21-.09.06,0,.09.11,0,.08-.11Zm-2.95-17.4.06,0,.1-.06.09-.11-.13-.07-.1.06,0,.1Zm3.94,19.65-.17-.07-.25,0-.16,0-.08.15.12.08.14-.07.15,0,.12.08.15,0ZM100,88.74l-.09.11,0,.1.14.17.18.07.09-.11,0-.15-.08-.13Zm3,6.09,1,1.69-.2.79-.47,1.4-1.47.14.27-.94.48-1.36c.09-.49.14-.73.24-1.22Zm-2.68-8.18.17,0,.14-.16-.16,0Zm2.72,14.46-.12-.08-.09.06,0,.14Zm.54,2.7-.08-.13-.11,0-.09.06,0,.1.08.13.16.07ZM101.66,89.7h-.5l.2.2.08.51h.28l.13-.21,0-.06v0ZM103.77,102l.14-.12-.15,0-.15.07Zm1,2.73-.15-.31-.37,0,.13.17.05.37h.21l.13-.16Zm-1-14.45.21-.08.15-.07.18.11.16,0,0-.14-.23-.06-.27,0ZM106.56,105l-.13-.17-.21,0-.17.22.14-.07.15,0,.11.08Zm.71-1.14-.07-.13-.21,0-.14.07.06.09.11.08.21,0Zm-1.89-15.06-.14-.17-.49.07.13.17.12.08h.27Zm2.53,4.5.13.13.16,0,0-.1v0l-.12-.08-.17-.07v.09Zm.46,3.38h.37l.22-.31-.12-.08-.12-.13-.3.18Zm.89.68-.19-.26-.31.09c0,.11,0,.17,0,.29l.12.08.15-.07Zm-.42-3.19-.1-.32-.17-.07-.1.06,0,.32.16.45Zm.26,1.19.18.12.1-.06,0-.1v-.09l-.17-.07-.15.07Zm.79,4.46.39.19-.13-.17-.12-.12.2-.12.24-.17.09-.15.14-.16-.53,0-.48,0,0,.19.13.22Zm0-1.6-.16,0,0,.05.14.26.3.24,0-.32Zm-.34-1.84c0,.13,0,.2,0,.33l.09.27.18.12.07.56.62.3-.22-.49-.37-.42,0-.37Zm1.78,4.06.07-.29-.24-.25-.27-.1-.18.21-.2.12-.15.07h-.26l-.08.15.07.13.22.07.44.18.42,0,.25-.08ZM109.72,96l.19.21h.37l1.32-.07-.7-.48-.72-.24-.36.14Zm.41-.95.22.07,0-.05,0-.1-.06,0-.11,0-.1.06Zm.76,3.48-.16,0-.09.11.07.13.12.13.16,0,0-.1Zm.57-1.39-.08.24-.07.29.38-.38-.67-.72-.06.38Zm.12,2.67.14-.16.26,0,.18.21.44.23.51-.06,0-.1v-.09l-.38-.14-.41,0-.57-.4-.27-.06-.19.16,0,.15.08.18Zm.49,1,.15,0,.3-.13.07-.29,0-.14-.12-.08-.25.08-.08.24-.09.06,0,.1h-.31l0,.24.23.16Zm-.63-5.19.17.12.16,0,.14-.16-.09-.27-.12-.13-.23-.12-.08.25Zm.42,3,.14.27.19-.17,0-.28-.11,0H112Zm1.44,3.78.36-.42-.57,0-.49-.22,0-.19-.21,0-.09.15.12.17,0,.23.13.22-.19.16.08.27.24.25.27.11.13-.2-.08-.23.14-.16ZM112,97l.06.09.12.13.2.4,0,.42.42-.43-.18-.64-.12-.08-.33-.15Zm-.92-11.36-.41-.61,1-.07L112,85l.35.1.37.33c.7,1.13,1,1.69,1.73,2.82l1.09,1.53,1,1.49c.89,1.15,1.33,1.73,2.2,2.89l1,1.55.92,1.52.91,1.57.9,1.52.84,1.62.78,1.58c.52,1,.78,1.49,1.28,2.49l-.3.07-.9.06-.73-1.07-.85-1.2-.83-1.53-.8-1.57-.86-1.57-.87-1.61c-.74-1.25-1.12-1.87-1.87-3.11l-.94-1.5c-.87-1.21-1.31-1.81-2.2-3l-1.08-1.43-1-1.43Zm2.54,13.1-.51.15-.61-.26-.12.3c0,.19,0,.28.05.46l.48,0,.32.06,0-.29.36-.09.25.3.14.36.32.11h.37l.13-.2-.07-.18-.27-.06-.17-.17.09-.15.29-.22.23-.31.3-.13-.09-.32.25-.17.19-.21-.42-.52-.57-.41,0,.46.19.31,0,.32-.29.74-.35.18ZM112,94.82l.18.17.21-.07.1-.06-.07-.18-.22-.07-.17-.08,0,.15Zm1.1,6.22-.2,0-.09.15,0,.23.11,0,.29-.13,0-.14Zm17.36,12.31c0,.56,0,.84,0,1.4s0,.81,0,1.36l-.08.42-.22.34-.33.2-.38.06-.43.07-1.85.15-1.91,0-2,.05-1.89.25-2,.23-1.82.09-1.81.15-.4-.09-.31-.2-.22-.21-.13-.31c0-.17,0-.25,0-.42l2.72-.3,1.9-.29,1.92-.08c1.55-.1,2.33-.14,3.89-.21l1.82-.16.57-.13.38-.07.28-.15.28-.2.18-.2.27-.39.08-.38c0-.26,0-.39,0-.65,0-.54,0-.81,0-1.36-.06-1.1-.09-1.65-.14-2.75l.25-.06.3.08.26.17.2.18.21.22.15.18v.23C130.31,111.68,130.35,112.24,130.44,113.36Zm-17.7-17-.17-.12-.16,0-.09.15,0,.1.08.18.22,0,.67.3,0-.05,0-.1Zm1,6.51.17.17.26,0,0-.14v-.09l-.17-.12-.2,0-.15.06Zm2.46.43-.19-.4-.37-.06-.28.22-.28.27-.25,0-.3.08-.29.13,0,.28.12.13.2-.07.48-.24.44-.23.09-.15.09-.1.27.16Zm-2.58-5.12.38.05.41-.52-.28-.63-.39-.19-.17.35c0,.11,0,.17,0,.28Zm1.21,7.05-.07-.13-.15.06-.09.06,0,.1.16.08h.1l.1-.06Zm.29-5.29L115,100l0,.14.23.16.26,0,.09-.1-.07-.18-.17-.17ZM116,105l.15,0,0-.28-.14-.31.08-.2,0-.28-.52.43.31.53Zm-.84-5.5.06.09.11.08,0-.19,0-.14-.06,0-.11,0-.09.1Zm1.34,6.34-.1,0-.1.06-.09.1c0,.06,0,.08,0,.14l.16,0,.1-.06,0-.1Zm.21-3.45.13.27.12.18.2,0,.08-.2-.07-.23-.12-.18-.21,0Zm1.1,4.86-.07-.23-.28-.3,0,.33.12.22Zm-.25-3.07-.16,0-.11,0,0,.05.06.14.11.08h.15Zm1.39.15h.1l.14-.11,0-.14-.06-.13H119l-.09.1Z"/><path class="cls-1" d="M170.2,114l-.31,1.51c0,.21,0,.31,0,.52l-.29.29-1.69-.13-1.66-.35-1.68-.24-1.67-.28-1.69-.08-1.7,0-1.69-.1-1.66-.36-.32-.26-.06-.47.19-2c.11-.78.17-1.17.29-1.95l0-.23,0-.23-.84-1.42-.91-1.37c-.81-1.06-1.22-1.59-2.06-2.65l-.44-.4-.55-.17-.86-.09-.86,0-.45-.11-.45-.06-.25.08-.16.14-.12.51c0,1-.06,1.57-.09,2.61l.08.42.19.15.2.05h1.35l1.29.2.34.11.19.2.18.29.1.84,0,.75-.22,1.34c0,.54,0,.81-.07,1.35l-.12,1.35-.06.23-.2.18-.54.16-1.7.06-1.74,0-1.69-.14-1.68-.18c-1.37,0-2.06.08-3.43.15s-2.05,0-3.42,0l-1.73.12-1.69-.1-.2-.28.08-.47c0-.69,0-1,0-1.73s0-1,0-1.68-.09-1-.15-1.68l.15-1.69.19-.24.4,0,1.4.11,1.39-.07.5-.19.1-.19,0-.28c0-.69,0-1,.08-1.73s-.1-1-.17-1.73.08-1,.13-1.73l.09-1.73c-.1-1.38-.14-2.07-.24-3.45.06-.69.08-1,.14-1.73s.05-1,.09-1.73-.07-1-.12-1.73l-.18-1.73,0-.51-.06-.28-.16,0-3,.33-1.08-.07-.33-.27c0-.21,0-.31,0-.51,0-.6-.06-.9-.1-1.49l-.09-3c0-.6,0-.9.07-1.5l.1-.33.27-.24.44-.25.5-.11c1.54,0,2.31.06,3.85.12s2.34,0,3.9,0l1.89.07,2,0,1.89.1,1.95.07c1.54,0,2.31,0,3.85,0,2.34.18,3.5.28,5.83.52l1.81.38,2,.5,1.72.68,1.68,1,1.44,1,1.23,1.36.87,1.47.85,1.52.56,1.58c0,.67.06,1,.11,1.66l-.16,1.63-.42,2-.81,1.78-1.05,1.66L167.61,101l-1.76.88-2.09.81-.28.21-.19.31,0,.37.12.29,1.26,2.06,1.35,2,.27.27.39.09,1.75.12,1.73.27.51.31.13.2c0,.13,0,.2,0,.33l0,.9-.08.6Zm-15.58-3.12-.18-.29-.18-.2-.34-.12-.68-.13-.17,1.11-.07,1.26-.13,1.35-.08.51,0,.33-.12.41-.16.23-.39.12-.39,0-.68.06-1.78,0-1.73.07-1.87-.15-1.63-.17c-1.33.05-2,.08-3.32.15s-2.07,0-3.45,0l-.86.06c0,.24,0,.37,0,.61l-.09.47.2.28,1.67.12,1.71-.1c1.35,0,2,0,3.38,0s2-.08,3.39-.11l1.66.2,1.66.16h1.72l1.67,0,.54-.15.2-.17.06-.23.14-1.35.09-1.35.23-1.34,0-.75ZM139.73,99.55l-.11.09v.09l.16,0h.05l.05,0-.05-.09Zm1.43-10,.11-.19.21-.14-.05-.28-.22-.19-.21.09h-.22l-.22,0-.16-.09-.16,0v.14l.11.09.27.33.32.19Zm-.54-.89c0-.11,0-.17,0-.28h.54l.16-.09.16,0-.75-.47-.11.19-.05.19-.16.23Zm.58,3.08.05-.23.21,0h.21l.27,0,.21-.09-.37-.24-.32-.33.11-.14-.16-.14-.16.09v.14l-.11.19c0,.07,0,.11,0,.19l-.27,0-.11.23.05.23.16.19Zm-.09-5.23.27,0c0-.09,0-.14,0-.23l-.27-.1-.22.14.05.14ZM141.3,94l-.05-.09-.1,0H141l-.11.09L141,94l.16,0,.05,0Zm.47-8.17s0-.06,0-.09l-.11-.14h-.33l-.27.19.38.14Zm-.5,1.54h-.11c0,.09,0,.14,0,.23l.05.28.22-.23-.05-.23Zm0,11.58-.15-.14c0,.08,0,.11,0,.19l.1.14Zm1-9.05.05-.09-.05,0-.22-.09-.22.14h-.16l-.05,0-.27-.14-.16.14.11.19.27,0,.05,0h.11l.27,0Zm-1,15.59-.1,0,0,.09s0,.06,0,.09l.1,0,.1,0c0-.08,0-.11,0-.19Zm.66-.7-.2-.14-.1-.23-.2-.14h-.1l-.05,0,.15.33.3.19.15,0,.1.14-.05.14.1.09h.15l.1-.09c0-.07,0-.11,0-.19l-.1-.1ZM142.79,93l.32-.09.16.19.21.14.06-.37-.26-.19-.32,0-.37,0-.27,0-.26-.1h-.32l-.21.14.05.14.21,0h.53Zm-.8-6.45-.27.42.32.42.11-.42c0-.15,0-.22,0-.37l.11-.28-.05-.33-.16.23-.11.19s0,.06,0,.09Zm.09,2.1-.21,0-.16,0c0,.06,0,.08,0,.14l.11.14H142l.16.09.05.19.26.33.43.19.05,0,.06-.09-.21-.24-.32-.14-.1-.23-.16-.23Zm.17,11.86-.25,0-.21.14-.15,0c0,.07,0,.11,0,.19l.2.23.25.19.1.09h.1l.1-.09-.1-.14c0-.11,0-.17,0-.28l.11-.19ZM142,88.21l.06-.14s0-.06,0-.09l-.11-.09-.16,0c0,.09,0,.14,0,.23l.11.09Zm0,4,.21-.09-.11-.19-.16,0h-.16v0l.05.19Zm0-1.45h.32l.11-.09-.05-.14-.21-.09-.16,0-.05.19Zm.18,4.21L142,95l-.05.09.05.09h.16l.16-.14-.05-.09Zm.27-.84c0,.06,0,.08,0,.14l.11.1.21-.23c0-.09,0-.14,0-.23l.21-.09.16-.18-.63,0Zm.3-8.78.11,0,.05-.09-.11-.1-.16,0v0l-.05,0,.05.14Zm.45-1.3L143,84h-.11l-.12.23-.22.33.44-.18Zm-.67,12.18c0,.07,0,.11,0,.19l.05.09h.05l.11-.19,0-.28Zm.15-10.41.05.23.27.14.54.24.59.29-.32-.61-.43-.47-.38-.05Zm.14,2.62-.06.23.27,0,.16-.18-.05,0-.11,0Zm.22-4.9.11-.09-.11-.19-.05,0-.11,0,.05.14Zm1.58,6.65-.21-.14c0-.08,0-.11,0-.19l.16,0,.32,0,.38-.09h.27l.16-.18.27,0,.33-.09,0-.47-.26-.52-.22.32-.06.28-.33.46-.06,0-.05.09-.38-.05h-.32l-.42-.29-.54-.15-.32-.42-.27.14-.22.33.32.24.26.19.22-.18.32.1c0,.11,0,.17,0,.28l-.11.28.21.24.27.14.27-.09Zm-1.3-3.43L143,87l.27.28-.44.27.54,0Zm0,19.24-.1-.14-.05-.14-.15.23,0,.23v0l-.05.09,0,.1h.3l.2-.14,0-.19Zm.38-20.5h.11l.06,0-.11-.09h-.11l-.11,0,.11,0Zm.14,1.92c0,.09,0,.14,0,.23l-.06.33-.22.32.65-.13.17-.51s0-.06,0-.09l-.21-.19Zm0,12-.21,0-.1.14.1.09.15,0,.21-.09.1-.09-.15-.1Zm.18-4.95.06,0,.05-.09-.1-.1-.1,0h-.05s0,.06,0,.09l.05.14Zm-.32,14.05-.05.19,0,0h.1l.15-.18,0-.23Zm.72-22,.22,0,.06-.19-.05-.14L144.5,86l-.22.14-.11.18.05.14Zm0,.65-.11,0c0,.06,0,.08,0,.14l.11.1.21.24.16.24.05,0h.05l-.05-.28,0-.33-.05-.14h-.16Zm.31,3.79.06-.14-.05-.14-.16-.1-.16,0-.11.09,0,.19.21.1Zm.16-2.75-.17.18-.16.14-.17.32.27.15.59-.13.12-.51-.16-.28Zm-.15,5,.06-.19c0-.07,0-.11,0-.19l-.16-.1-.22.09-.05.19,0,.19.16.1Zm0,2.1-.26.09c0,.17,0,.25,0,.42l.21-.09.1-.09.11-.19Zm.2-5.13-.05.14s0,0,0,0l.05.09.22-.18-.05,0-.05-.1Zm-.14,12.47-.1,0c0,.07,0,.11,0,.19l.15,0,.21-.09-.1-.1Zm1-4.09-.2-.19h-.1l-.52.08-.16.42.31-.13h.57Zm-.47-12.34.11,0,.05-.09-.21-.29-.11.09-.06.09c0,.07,0,.11,0,.19Zm0,8.59-.11.09v.09l.05,0h.16l.16-.09c0-.06,0-.08,0-.14l-.11,0Zm.54,5.71.16-.14,0-.19,0,0-.1,0-.21.13,0,.23v.09l-.06.19.15.1.16-.14,0-.14C145.83,100.69,145.83,100.66,145.83,100.6Zm.36-4.19H146l-.11.18-.06.23.26.15-.1-.28.16-.14C146.19,96.49,146.19,96.46,146.19,96.41Zm13.1-.66.47-.57.37-.62.27-.73.12-.79v-.79l-.15-.72-.31-.73-.44-.6-.5-.56-.67-.47-.79-.38-1-.16-1.08,0h-.76l-.71.05h-1.08l-1-.1-.75-.13-.7-.12-1.08-.09-.33.08-.22.18-.12.28-.06.28,0,1-.08.7c0,.26,0,.39,0,.66l-.09,1L148.53,94l0,.65c0,.39,0,.59,0,1,0,.13,0,.2,0,.33l.15.24.2.15.31.1,1,0,.73.08.68,0,1,.1h1l.74-.1.74,0,1.94,0,.8-.18.7-.27ZM149.79,94l0,.7c0,.28,0,.42,0,.7l.58,0,.57.07h.26l0-.47.1-1c0-.26,0-.39,0-.65l.09-.7.06-1.26.12-.28.22-.18.33-.08,1.28.12,1.44.08,1,.11,1.07,0,.75.05.69.1H159l0-.1-.34-.45-.4-.4-.46-.36-.47-.22-.64-.09-1,0H155l-.81,0-1.18,0-1.18-.11-.8-.18-.64-.07-.32-.06c0,.3,0,.45,0,.75l-.08.7c0,.28,0,.42,0,.7l-.09.93Zm1.09,11.69,0,0,1.2.06-.61-.78-.15-.15h-.15l-.71-.08-1,0c0,.62,0,.92-.06,1.54l.8,0,.6.08ZM153,99.25l0,0h-.2l-.06.09h-.1l.2.1H153s0,0,0,0Zm.24-.6-.21.08v.19L153,99l0,.05.1.05.16,0,0-.19Zm.92,3.61,0-.19-.19-.2,0,.37,0,0h.1c0,.15,0,.23,0,.38l.4.17-.13-.29Zm0-.7h.1l.06-.14-.09-.19-.11,0-.06.09,0,.14Zm.68-1.88.26,0,.17-.32-.31.07-.26.08-.15-.1-.15-.06.08.33Zm.09,1.74v0l0-.1-.09-.1-.06.09,0,.1Zm.42,1.43h.15v-.19l.06-.09-.1-.05,0-.19.16-.13h.15l.11-.09,0-.1h-.15l-.19-.2s0,0,0,0l-.25,0-.26,0-.22.13,0,.28.23.34Zm-.32,1.06v0l-.1-.1-.1,0-.06,0s0,0,0,0l.1.05h.1Zm0,1.36H155l-.06.09.09.1h.1v-.09Zm.65-4.36h0l.16,0,.06-.09-.14-.19-.25-.06-.16.13,0,.19-.06.14-.11.09.25,0Zm-.57,3.24v.09l0,0,.15.06.26-.12-.25-.06Zm.56-3.89h.15s0-.06,0-.09l-.1-.1-.11.09Zm.16,3.62-.15,0-.06.13h.15l.16-.13,0-.05Zm.63.47-.25-.11-.16.13-.07.32.13.29.21,0,.11-.18.17-.18.21-.08-.2-.06Zm1.27-4,.21-.08.12-.23-.19-.2-.26,0-.16.08-.17.22.15.1Zm.2.77-.18-.39-.25-.11-.12.23,0,.33,0,.24.26,0Zm-.76,3.27v.19l.14.15.22-.22.07-.27-.25,0Zm0,2.62-.1,0v.14l0,.05.1-.09V107Zm.55-3.84-.24-.25c0,.13,0,.2,0,.33l0,.24-.06.09,0,0,.2.06.16,0v-.19Zm.84-.31-.14-.11-.11.13-.12.22-.07.28v.14l0,.1.1,0,.11-.13.11,0,.16,0,.21-.08v-.18l-.08-.2Zm.9-1-.15,0-.12.18-.11.09-.21,0,0,.19.15.06.16-.13h.1l.16-.08.12-.22Zm-.65,2.34-.07.18.09.1.11-.08.16-.08-.09-.15Zm.42-1.37h-.15V103l.09.05.16,0,.05,0,0-.1Zm.79-6.31.17-.17,0-.28-.11.13-.07.18-.21,0-.06.09.1.1Zm13.1,16.85c0-.36,0-.54,0-.9,0-.13,0-.2,0-.33l-.12-.21-.5-.31-.64-.09-.28,1.23-.21,1.43-.26,1.47-.07.46c0,.15,0,.23,0,.38l-.13.55-.28.29-.51.17-.53-.07-1.88-.11-1.65-.34-1.62-.23-1.62-.27c-1.31,0-2-.06-3.28-.08l-1.24-.11,0,.56.05.47.31.26,1.64.38,1.66.12,1.68,0,1.67.09,1.65.29,1.65.26,1.64.37,1.67.15.29-.29,0-.52.32-1.51.22-1.48L173,114Zm-13.72-6.5-.11.09-.11.13.2.06.2,0,.11-.08v-.14l-.14-.11Zm.72-4.25h-.05v0l-.25-.07-.17.13.09.2.13.25,0,.28.38-.29Zm.33-4.38.17-.17.12-.18-.36,0-.22.12,0,.24Zm-.79,6.82-.06.09v.14l.19.11h.15l0-.28-.14-.11Zm.41,1.11-.13-.2-.09-.1h-.1l-.06.14.09.15.09.19h.1Zm-.41,4-.1,0s0,.05,0,.09l.1.06.1,0s0-.06,0-.09Zm.52-2v-.14l-.09-.15-.07.18,0,.14h0Zm.3-3.4h.1l0-.1v-.09l0,0-.11.08s0,.06,0,.09Zm-.33,3.72-.11.08.17.3.22.26.09-.41ZM162,94.81l-.1-.1-.1-.06-.23.17.08.24v0h.05l.51.19.4-.29-.31,0Zm-1.2,10.3-.14-.06.08.2,0,.19.09.1.16-.08c0-.09,0-.14,0-.23Zm2-17.73,0-.24-.11,0h-.05l-.08.23.14.25ZM161,110.19l-.2,0-.21.12.24.07.25-.07Zm.25-3.77.06-.13,0-.1,0-.05h-.1l-.1,0,0,.14,0,.1Zm-.44,2.59.08.24.14.15h.1l.06-.09-.08-.24Zm2.39-16v0l.17-.12,0-.05v-.09l-.21,0-.08.23L163,93l-.22.07-.12.18,0,0h.1l.27,0Zm-1.59,18-.09-.1-.16.13-.07.23.2-.07Zm0,.94-.14,0-.1,0,0,.1.1,0,.15,0Zm.6-3.56-.06.09v0l.19.07.16-.08-.09-.15Zm2.33-18.63.3.22,0-.28-.2-.21c0-.07,0-.11,0-.19l-.15-.11-.23.12-.13.27.15.16ZM163.8,95l.1.1.21.07.17-.08,0-.15,0-.1-.2-.07-.22.07Zm.39-2.35.16,0,.1.06.11,0,0-.05-.27,0Zm-1.7,18.46-.16.12v.14l.08.15.14.11.16-.08.07-.18-.13-.2Zm-.17,1.72-.1,0-.05,0V113l.09.06.15,0,.06,0,0-.1Zm.45-3.94c0,.07,0,.11,0,.19l.14.11.26-.07.11-.13-.14-.11H163Zm0,2.77,0,.28.12.25.16-.12-.07-.24Zm.57-.74-.1-.06h-.1V111l.13.16.1,0V111Zm.14,1-.1,0,0,.14h.1l.06,0,0-.1Zm.18-.36h0l-.06.09v.09l.09.06.1,0,0-.14Zm3.65-7.34,1.7-.87,1.82-1.65,1.32-2,.78-1.82.53-2.24.19-1.72c0-.57,0-.86-.07-1.43l-.12-.35-.78-1.47c.05.72.08,1.08.13,1.81l-.18,1.72-.53,2.28-.77,1.78-1.31,2L168.22,102l-1.71.93-1.93.68.88,1.36Zm-.58-13.84-.22,0-.15-.11,0-.14-.16-.06-.12.08-.06.09.09.2.16.06.59.06.19.21.32.08.06,0v-.09l-.3-.27Zm-1.22,6.77.17-.12,0-.19-.17.08Zm1.21-2.78,0-.05V94.3l-.1-.06-.17.07,0,.19-.24.25-.12.08-.11,0,0,.19.19.21.27,0,.15.06.06-.09s0,0,0,0h.05l0-.23.07-.18,0-.19Zm0-4.84h.11l0-.18,0-.05h-.11l-.06,0Zm-2.28,21.78-.15,0c0,.19,0,.28,0,.47l.09.11h.1l0-.23-.07-.24Zm3-14.28h-.1l-.07.13,0,.1h.1l.06-.08Z"/><path class="cls-1" d="M207.67,125.11l-1.56-.55-1.47-.7-.42-.28c0-.18,0-.27,0-.45.08-.6.13-.9.2-1.5l.4-1.49.34-1.46.64-1.42.21-.33.15-.15.34-.09h.32l1.29.45,1.3.41.42,0,.25,0,.28-.2.11-.16.56-1.73.37-1.79.56-1.73,1.23-3.43.67-1.7,0-.36-.2-.26-.41-.13-.35,0-1.81.95-1.84.94-1.75,1.08-1.72,1-1.62,1.13-1.74,1.06-.46.11-.49-.14-.29-.28-.2-.25-.86-1.3-.86-1.39-.58-1.46-.64-1.47-.85-1.32-.85-1.37-.56-1.48-.35-1-.21-.48-.24-.15-.33,0-.34.06-.15.16-.39,1.92-.33,1.89-.43,1.86-.4,1.92-.58,1.83-.34,1.93,0,.3,0,.25.21.19.27.16,1.38.28.66.07.72.23.22.15.2.24,0,.52-.17,1.5-.42,1.44-.23,1.53-.43,1.48-.19.34-.19.15-.29.17-.3,0-1.63-.3-1.63-.48-1.55-.6-1.57-.54-1.66-.12-1.65-.15c-1.28-.41-1.92-.61-3.21-1l-1.59-.2-1.61-.37-.6-.25-.17-.12,0-.29c0-.32,0-.48,0-.8l.22-.72.49-1.48c0-.62,0-.94,0-1.56,0-.36,0-.54,0-.89l.19-.58.37-.41.62-.08,3.09.65.36-.27.09-.51.26-1.71.22-1.72.37-1.69.32-1.7.41-1.63.48-1.67L184,98.1c.06-.69.1-1,.16-1.73l.41-1.63.21-1.72.05-.56-.07-.25-.25-.14-.63-.16-.93,0h-.77l-.85-.19-.21-.08-.29-.24-.12-.26-.06-.29c0-.34,0-.51,0-.85l.17-.68.46-1.44c0-.62,0-.93,0-1.56,0-.27,0-.4,0-.66l.25-.86.35-.41.35,0h.34l1.29.08.56.05,1.91.44,1.88.31c2.24.44,3.36.67,5.6,1.15l1.93.34,1.86.43.3.21.2.38.92,1.42.79,1.44c.57,1.22.85,1.83,1.4,3l.93,1.45.93,1.4.37.92.22.64.85,1.4.17.19.29.18h.33l.31-.11,1.58-.62,1.43-.85c1.12-.72,1.68-1.08,2.82-1.79s1.82-1,3-1.6l1.36-1,.76-.54.64-.33.41-.16.46.05,1.79.69,1.77.75,1.85.54,1.83.6c1.46.56,2.18.85,3.63,1.44l1.88.47.92.3.92.46.25.15.35.34.11.34c0,.12,0,.18,0,.3l-.47,1.47-.75,1.41-.61,1.37-.86,1.27,0,.13-.26.2h-.29l-.27-.06-1.4-.35-1.38-.38-.67-.1-.27.1-.15.24-.69,1.53-.46,1.68-1,3.31-.71,1.58-.64,1.55-.71,1.58-.66,1.6-.61,1.62-.35,1.66c0,.18,0,.27,0,.45l.27.15.22.13,2.36,1.22.3.22.2.18.12.25c0,.12,0,.18,0,.3l-.41,1.45-.62,1.41-.53,1.45-.38.8-.34.57-.21.27-.22.16-.24.06-.43,0-.81-.22-.76-.35-1.55-.74c-1.26-.44-1.89-.65-3.16-1.06l-1.52-.69-1.51-.72-1.61-.44Zm-10.34-7.54-.2,1.5-.43,1.43-.89,3-.19.34-.19.14-.3.16-.3,0-1.42-.27-1.61-.5-1.53-.61-1.58-.42L187.1,122l-1.63-.17-1.55-.52c-1.27-.3-1.9-.45-3.18-.73l-1.58-.39-.59-.25-.17-.12,0-.29c0-.32,0-.48,0-.8l1.59.15,1.48.47,1.71.53,1.79.18,1.51.08,1.42.51,1.56.55,1.75.56,1.61.35.47.12.44,0,.32-.06.39-.19.25-.37.3-.4.09-.36.12-.26.43-1.43.27-1.62.35-1.16.71.23.22.15.19.24C197.35,117.27,197.35,117.37,197.33,117.58Zm-9.92-18.29-.21,0-.33,0-.12.31.19-.15.24-.09.09.07,0,.06Zm-2.8,13.82v-.19l-.13-.12h-.2l.05.25.16.22Zm1.46-7.23-.09-.07-.17.06h.05l0,.06.14.08Zm.07.68.09.07.11,0,0-.14-.09-.07-.11,0-.06,0Zm-.19,3.2c0-.1,0-.14,0-.24l-.08-.11-.1,0-.13.12.07.16,0,.15.09.06Zm1.88-7.05,0,.18.18.14c0,.15,0,.23,0,.39l.37,0,.45-.1-.22-.19-.2,0-.37-.27-.08-.11.09-.41.31-.22.12-.31.41-.15-.13-.17-.23-.19-.2.2-.18.11.13.17-.09.17-.26-.05-.19-.09-.18.11-.14.16,0,.15.09.07.13-.12.15,0,0,.1c0,.1,0,.14,0,.24ZM189,94.48l0,.06.18-.06.08-.13-.21,0-.08.13Zm-3.3,17.58-.07-.16,0-.06-.06,0,0,.14.07.16Zm3.7-14.73-.36-.12-.37-.08,0,.09.1.07.23.19Zm.16-3.93.12.22,0-.18,0-.1.14-.11,0-.09-.11,0-.14.12Zm.06,1.35-.19.11.37.08.11-.26.08-.12,0-.15h-.22l0,.18ZM186,113.06l0-.06-.09,0-.12.12v.19l.16-.06Zm4.63-22.69,0,.1,0,.06.12,0h.06l0-.09-.1-.07h-.06ZM187,108.07l-.08.13,0,.29h.26l.11-.26-.18-.37Zm.22,3.63.35-.21c0-.13,0-.2,0-.33l-.17-.18-.28.08-.15,0-.32-.21-.33.08.31.25L187,111l0,.34.09.3-.19.15,0,.23,0,.05h0l.18-.1ZM190,98.59l-.2-.09-.15-.08,0,.18.14.13-.16.25-.2.19,0,.09-.21.2-.24.14-.11,0-.08.13.08.11.12,0,.4-.11.41-.15.11,0,.06,0,.09.07.11,0,.15-.21-.22-.24-.08.13,0,.15H190l-.06,0,0-.15-.08-.11v0l0-.1,0-.18.19-.1h0l.06,0-.08-.11Zm-2.47,7.12.15,0h.16l0-.09,0-.15-.08-.11-.17.06-.08.13Zm-.66,3.39.4.08-.21-.24Zm3.83-17.28.08.16H191l.16,0,.12,0-.12-.22-.27-.06-.12,0Zm-4,21.49-.12-.17-.14-.08,0,.15.13.12h0Zm-.36,1.45-.1,0-.11,0v0l0,.1.14,0Zm-.17.58h0l-.11,0,0,.14,0,.06.11,0Zm5.09-24.55.1.07.16,0-.07-.21-.11,0-.06,0Zm-3,14.36-.06,0,0,.23.07.16.09.07.06,0,.08-.13-.07-.16v0l0-.1.13-.11-.08-.11-.17.06Zm3.36-15.61,0,.06v0l.1.07.07-.08v0l0-.06-.1-.07Zm-.32,3.61.21.33.06-.27c0-.11,0-.17,0-.29s0-.2,0-.33l.12-.31.18-.06h.28c0,.1,0,.14,0,.24l.21,0,.18-.06,0-.15,0-.23.16-.21.09-.12-.22,0-.21-.09-.14.11-.42-.14-.14.4-.07.32-.22.24Zm-3.16,17.18-.19-.09-.17.06-.21.24.13.36.14-.16.18-.11.14-.16Zm-.41,2.39.19,0,.08-.13-.08-.11-.15,0-.27-.16-.2,0,.1.26Zm2-10.4.12.17.22.24.31.07-.07-.16-.14-.08-.11-.26.08-.13.26-.19.16-.25-.34.07-.29-.16-.09-.07h-.16l0,.14.33.21-.28.28Zm1.5-6.94.18-.06,0-.1h-.17l-.14.12ZM192.34,90l.09.11h.17l0-.14-.09-.11-.15-.08Zm-3.83,19.48.09.07.06,0v-.19l-.19-.09-.17.06-.08.13.14.08Zm.81-1.31-.21-.24-.3-.06-.13.11.06.21c0,.08,0,.12,0,.19l0,.18.17-.06.22,0,.17-.06Zm-1.79,7.26-.14,0-.06,0,0,.09,0,.06.11,0,.06,0Zm5.36-24.83.1.31.12.5.22-.48-.16-.32L193,90.5ZM191.47,98l0-.09-.09-.07-.13.12,0,.14.16,0Zm.39-1,.25-.14-.25-.1h-.22l-.07.08,0,.06Zm-2.22,11.75v-.28l-.15,0-.17.06c0,.1,0,.14,0,.24l.16.23Zm3.62-15.36.18-.3-.09-.11-.15-.08-.31.12-.07.32Zm.3-1.37,0,.1.15.08.12,0,.07-.08,0-.1-.15-.08h-.17Zm.2,2.1-.17-.23-.34,0c0,.11,0,.17,0,.29l.09.12.18-.06Zm.55-.21.09.59.65.34-.27-.54-.34-.46-.09-.35-.32-.31,0,.34.05.25Zm-.08-1.16.22.29.34,0,.66.06.72,0-.77-.56-.73-.26-.35.06Zm.37-.88.27.06.06,0,0-.09-.1-.07-.1,0-.06,0Zm-.4,3.26.22.24.26.3,0-.34-.21-.29h-.17Zm.2,1.53.44.25-.25-.35.44-.23.1-.17.15-.16-1.07-.15v.24l.17.23Zm1.59,1-.05-.25.07-.27-.26-.3-.3-.12-.16.2-.19.1-.18.05h-.22l-.14.11.13.17.16,0,.44.25.47.11Zm0-3.6-.13.55.42-.34-.78-.76,0,.39Zm-.09-1.79,0,.3.19.14.22.05.09-.17-.05-.25-.39-.28Zm-.38,3.32-.07-.16-.16,0-.09.12.08.11.07.16.21,0,0-.14Zm1-3.9,0,.15.18.19.19-.05.13-.07-.07-.16-.41-.19Zm0,5,.18.19.49.26.51,0,.08-.08,0-.1-.41-.15-.38,0-.34-.23-.28-.21-.26-.06-.19.1,0,.18.07.16.2.1.14-.11Zm0-2.7.21.29.24.39c0,.17,0,.26,0,.43l.49-.41-.24-.63-.08-.12-.35-.18Zm.33-.45.08.16.2.1.36.13.4.2,0-.14-.33-.27-.26-.3-.19-.14-.26.13Zm-.07,2-.21,0-.11.21.1.26.2-.14Zm-3.12,13,.92-3.86.29-1.42.19.57.11.22.62,1.21-.1.41-.36,1.89-.46,1.86-.42,1.92-.29.75-.15,0-.51,0-.65-.11.26-1.52Zm3.16-10.67.29-.07.08-.32,0-.1-.08-.12-.24.08-.11.21-.13.07v0l-.33,0c0,.1,0,.14,0,.24l.24.15.21-.19h.05Zm2.5-.68.21-.19-.12-.18-.26-.07L199,96.6l.1-.17.28-.22.24-.28.3-.07-.08-.36.43-.37-.42-.54-.61-.49,0,.49.2.34,0,.34.08.36-.06.23-.31.11-.32.16-.63-.16-.53.11-.64-.35L197,96l.11.46.79.19c0-.13,0-.2,0-.33l.4,0,.24.4.14.33.36.14Zm-1,2-.58-.1-.55-.23V98.7l-.21,0-.09.12.12.17,0,.25.1.26-.15.16,0,.3.27.26.3.12.15-.16-.15-.28.15-.16.19-.1.16-.2Zm-.15-4.8c0,.23,0,.34,0,.57l.07.4.43.06L199,95l-.29-.65-.39-.24Zm-.67,3.87-.09.12.06.21.09.07.18-.05.13-.07,0-.13-.19-.14Zm1.36,1.83-.18-.14h-.22l-.12.06,0,.11.17.19.27,0Zm.91-3.38L200,97l.09.07c0-.06,0-.09,0-.15l0-.18,0-.06-.11,0Zm-.09.8.23.2.27,0,.09-.12-.07-.16-.17-.19-.23,0-.13.06Zm.94,3.23.27,0-.21-.44-.37,0-.27.17-.28.22-.29.07-.28,0-.29.07-.08.32.13.13.23,0,1-.42.17-.24Zm-1.13,1.83-.09-.07-.23,0,0,.13.14.09.11,0,.08-.08Zm1.39-.07,0-.3-.13-.33.11-.21,0-.3-.49.4.29.56.12.18Zm.67-2.33.17.19H202l.1-.17-.22-.44h-.22l-.1.17Zm-.29,3.35,0-.15-.1,0-.25.13,0,.15.14.08.13-.06Zm1.1-1.64,0-.06-.14-.09-.15,0,0,.09.08.12.09.07h.17Zm.21,3.06-.09-.27-.24-.31,0,.34.1.22.15,0Zm1.52-3.12-.08-.12h-.17l-.08.08c0,.08,0,.12,0,.19l0,.1.1,0,.14-.11Zm4.13,9.82-1.63,1.11c-1.23.66-1.84,1-3,1.68l-.46.11-.49-.14-.29-.28-.19-.25-.06-.16,0-.06.29-.11.75-.22,1.69-1.06,1.69-1.16c1.37-.84,2.06-1.25,3.46-2.07l1.79-1,.4-.22-.09.27-.66,1.7-1.4.78Zm-1.08-9.59.22,0h.28v-.24l-.36-.3-.44.16-.17.2.3.13Zm-.3,3.12-.14-.09-.18,0-.08.07-.09.12.19.11.23,0Zm1.69-4.42.16,0,.11-.16-.13-.14,0-.06v0l-.12-.18-.26-.08-.13.06.07.16.19.11,0,.06.05,0ZM208.1,104l-.24.07-.2.09.22,0Zm-.06-.55.21.41-.06-.36.09-.31Zm.59-1.63.18.15.2-.09.25-.07h.34l-.35-.35-.48.1v0l-.05,0Zm-.46,3,0-.11,0-.06-.13.06,0,.09.15,0Zm2.88-3.23-.23.37.26.08h.34l0-.28c0-.08,0-.12,0-.2l-.21-.06-.1-.23.26-.11.25-.07.05-.18,0-.24-.14-.09h-.17c0,.08,0,.12,0,.19l-.13.06-.15,0-.33-.39-.11-.18-.23,0-.36-.3-.36.24-.26.31h.34l.25-.07.22,0,.23,0,.21.06.11.18.1.23-.06.37Zm-2.07.88.1,0,.19-.09v-.15l-.09-.08-.13.06Zm-.28,1.87-.19.09-.08.07,0,.06.23,0H209Zm.39,1.29-.36.09-.28.21-.23,0-.26.12.27,0h.17l.06,0,0-.09.43,0Zm.17-2,.09.08,0-.14,0-.06-.1,0,0,.14Zm.91.33,0-.24,0-.41c0-.18,0-.27,0-.45l-.35.43-.12.4.08.27.3.09Zm-.49.34,0-.1-.15,0,0,.13,0,.1.06,0,0,0Zm.52-1.89.09.07.1,0,.13-.06.09-.31.12-.21-.1,0-.16.15-.22.18-.08.08Zm.28.92.27,0,.08-.27.41.13-.25-.27Zm.06,1.63,0-.24-.23-.17-.16.15.16.2Zm-.83,1.79v-.15l-.07-.12,0,.13Zm5.24-2.75.37-.42.22,0,.25-.07-.09-.08,0-.06.06-.18v-.15l.05,0,.12.14H216l.39,0,.32.06-.06-.32-.34,0-.22,0-.18-.16-.22,0h-.17l-.15-.25-.16-.2,0-.11,0-.06.15-.29-.27-.23.13-.06-.21-.41-.32-.25-.22,0-.17.19v0l-.05,0-.27-.23-.28-.19,0-.33.37-.08,0,.11.09.08v.15l.08.12.08-.07.06-.18.22-.32v-.15l.1-.12.08-.07,0-.11,0-.09.07,0,.11,0v.15l.14.09,0,.06.05,0,.13.14.19.11v.15l0,.11-.18.38.16.4.26-.11.33.06.21-.13c0-.08,0-.12,0-.19l-.17-.2-.22,0,0,.13-.19,0-.06-.17.1-.31,0-.11-.1-.23-.23-.17-.09-.27-.27-.23-.24,0,0-.13v-.2l-.06,0-.1.12c0,.08,0,.12,0,.19l-.27.11v0l-.05,0h-.29l-.28.16-.05,0-.06,0-.29-.19-.27,0-.3.05-.08-.12-.09-.08-.17.19.1.23-.07,0v0h-.12l-.08.07-.21-.07H212l.09.08.08.12.26.08h.29c0,.16,0,.23,0,.39l.11.38.29-.2,0-.33.12-.21.21-.13c0,.16,0,.23,0,.39l-.08.42-.23.17-.17.19-.07.22.18.16.08.12.16.39.49.06h.34l.06-.37.09-.12.15-.1.07,0,.06.51c0,.08,0,.12,0,.19l.21.07.11.18.18.16.17.35,0,.41-.13.06,0,.11-.2.08-.18,0-.26-.08.06-.18-.06-.17-.15,0-.06,0-.06.18.06.17,0,.13-.22,0-.19-.11h-.12l0,.1v.15l.06.17,0,.13.12.14.13-.05,0-.09h.12l.1,0Zm-3.22-.34-.31.1-.38.13.4,0Zm-.51,1.11-.07-.12-.06-.17-.19.09,0,.21.22,0Zm.89-3-.12.21-.16.15,0,.13.13.14.09.08.13-.06,0-.13-.09-.08c0-.06,0-.09,0-.15l.14-.1.15-.3-.07-.32-.1,0-.13.25Zm.34-.73h.12l.07,0,0,0-.21-.07-.07,0,0,0Zm-.46,2,.2-.08-.13-.14-.22,0,0,.09Zm-.12.55,0,.11,0,.06H212l.08-.07,0-.09-.1,0-.06,0Zm.29,1.56,0-.28-.07-.12H212l-.2-.06-.21.13-.06.18.19.11.06.16.07.12,0,.09.14.09.06,0,0-.13Zm1.41-6.46.22,0,.15-.1,0-.09-.22,0Zm.84-1.2.05,0,.07,0,.08-.07,0-.11-.05,0-.06,0Zm-1.15,7.38.14-.25-.13.06-.08.07-.13-.14-.11-.18-.09-.08-.14-.09c0,.14,0,.21,0,.34l0,.28.15,0,.13-.05Zm11.39,23.52-.63,1.4-.55,1.44-.38.8-.31.48-.21.27-.22.16-.23.05-.43,0-.66-.17-.75-.35-1.56-.67c-1.24-.45-1.86-.67-3.11-1.09l-1.5-.7-1.48-.73-1.58-.46-1.65-.42-1.54-.56-1.44-.72-.42-.28v-.44l.11-.65,1.23.45,1.71.42,1.49.45c1.22.54,1.82.81,3,1.36s1.89.62,3.14,1.06l1.5.72.8.36,1.33.48.69.12.54,0,.38-.15.29-.33.54-1.45.4-.85.55-1.49.49-1.06.45.23.15.16.19.18.11.25v.3Zm-10.9-25.76.14.1H214l.08-.07-.11-.18-.1,0-.13.06C213.75,102.5,213.76,102.53,213.76,102.59Zm1.26-2.14-.09-.08h-.12l-.15.1.06.17,0,.06h.12l.15-.1Zm-1.48,4.77-.27,0-.14.1,0,.09.09.08.14-.1Zm2.8-5.47.14.1.19,0,.15-.1,0-.11-.14-.09-.27.11Zm-.09,2c0,.14,0,.21,0,.34l-.16.29h-.17l0,.13.14.1.15-.1h.17l.13-.06.17.16.18,0,.15-.1.11-.16-.13-.14-.18,0-.14-.1-.07-.12-.18-.16Zm.64-1.41,0,.24.33.4.06.17,0,.21.11.19.21.07.13-.05-.06-.17-.18-.31-.24-.33-.18-.16.11-.16v-.19Zm-6.62,22.06-.05-.16-.06-.12h0l.18-.38,0-.09,0-.1.21-.32-.08-.08,0-.1-.31.29v.3l-.11.16-.09.12-.26.31,0,.06.41.19h.11Zm7.31-24,.11.18h.12l.07,0,0,0-.08-.12-.16-.05Zm-.59,3.15,0-.06h-.12l-.08.07v.15l0,.06.1,0,.1-.12C217,101.68,217,101.65,217,101.59Zm.62-1.17.34.36.38-.12.13-.05,0-.11-.22,0-.2.08-.19-.11Zm-4.75,17.42-.24-.08-.13.06.13.24.15,0Zm5.68-16.42,0,.11.09.08.05,0,.08-.07,0-.11-.16-.05Zm.52-1,.09.08,0,.06.11,0,0-.09,0-.06-.09-.08h-.12Zm-3.24,12.12.26-.11.18-.19-.1,0,0-.06-.21.13Zm-.23,2.24-.29,0,0,.24.16.15.06.17c0,.08,0,.12,0,.19l.22-.17,0-.28,0,0v0l.1-.12,0-.11ZM213.52,122l-.41,0L213,122l0,.09,0,.1.08.08h.11l.14,0,.17,0,0-.09.08-.07Zm.93-1.6,0,.09-.09.11-.13.2.14.05h.27l.14-.1.12-.05H215l.13-.05,0-.11-.16-.15-.09,0-.13-.09,0,0,0-.06h-.11l-.14.1Zm-1.39,3.67.35.32.41,0,.13-.06,0-.24.08-.22-.59-.55c0,.06,0,.09,0,.15l0,.19-.19.23-.08.07Zm2.86-7.41,0,.17.19.22.16.16c0,.12,0,.18,0,.3l.13.24.1,0,.06,0c0-.16,0-.24,0-.4l-.21-.32-.13-.09c0-.08,0-.12,0-.19l0-.13-.07-.12-.14,0-.08.07Zm1.15-.19,0,.06h.11l.08-.07,0-.09-.08-.08-.06,0-.08.07Zm-1,4.66,0,.06,0,0h.11l.06,0,0-.06h-.11Zm-.93,4.78.37.13,0,.17.13.09,0-.13-.09-.18-.2-.17Zm2.18-5.57,0,0,.06,0,0,0Zm-.3,5.16,0,.06v.11l.13.2.23-.06,0-.24-.2-.18-.18-.07Zm13.46-19.23h.53l.36-.31.34-.27.05-.13,1-1.41.66-1.49.7-1.28.3.17.24.15.35.34.1.34c0,.12,0,.18,0,.3l-.49,1.47-.76,1.4-.62,1.36-.7.82-.05.13-.26.2-.29,0-.27-.06-1.18-.28-1.37-.39-.66-.11-.27.09-.15.24-.88,2-.48,1.67-1.06,3.3-.73,1.57-.66,1.55-.73,1.57-.68,1.59-.15.39-.36-.19-.92-.46.29-1.19.58-1.53.65-1.55.72-1.58.65-1.55.75-1.66,1-3.3v0l.9-2.66,1.27.34,1.39.35.05,0,.27.06Z"/><text class="cls-3" transform="translate(113.02 66.38)">T<tspan class="cls-4" x="17.04" y="0">HE</tspan></text><line class="cls-5" x1="57.35" y1="157.88" x2="59.52" y2="157.88"/><line class="cls-6" x1="63.96" y1="157.88" x2="79.52" y2="157.88"/><line class="cls-5" x1="81.74" y1="157.88" x2="83.9" y2="157.88"/><text class="cls-7" transform="translate(58.08 174.32)">E<tspan class="cls-8" x="8.33" y="0">S</tspan><tspan class="cls-9" x="16.66" y="0">T</tspan><tspan class="cls-10" x="23.54" y="0">.</tspan></text><rect class="cls-1" x="57.14" y="178.38" width="26.68" height="1.05"/><line class="cls-5" x1="194.67" y1="157.88" x2="196.83" y2="157.88"/><line class="cls-6" x1="201.28" y1="157.88" x2="216.83" y2="157.88"/><line class="cls-5" x1="219.05" y1="157.88" x2="221.22" y2="157.88"/><text class="cls-11" transform="translate(195.39 174.32)">1920</text><rect class="cls-1" x="194.45" y="178.38" width="26.68" height="1.05"/><text class="cls-12" transform="translate(99.14 209.4)"><tspan class="cls-13">W</tspan><tspan class="cls-14" x="14" y="0">el</tspan><tspan class="cls-15" x="26.83" y="0">c</tspan><tspan class="cls-14" x="35.18" y="0">ome </tspan><tspan class="cls-16" x="68.86" y="0">t</tspan><tspan x="74.16" y="0">o</tspan></text><text class="cls-17" transform="translate(101.66 226.99)">R<tspan class="cls-18" x="8.38" y="0">OCK</tspan><tspan class="cls-19" x="36.08" y="0">W</tspan><tspan class="cls-18" x="49.09" y="0">OOD</tspan></text><path class="cls-1" d="M116.38,173.89c5.24,6.23,9.53,3.88,10.44,5.14s1.47,2.38.13,4c-3.84,1.7-.59,3.64,3.28,1.48-1.93,3.52,1.47,2.84,2.87,2.33a74.53,74.53,0,0,0,14-7.76v6.67H145.5a1.51,1.51,0,0,0,0,3h9.35a1.51,1.51,0,0,0,0-3h-4.67v-7.83s0,0,0,0c16.29-.62,18.46-11.38,18.49-17.11,0-5.91-1.69-17.61-2.64-21.55s3.35-3.56,3.35-4.13-3.16-3.29-4-4-2.11-3.47-5.19-2.8c-6.82,1.88-4.86,7.29-3.57,11.07,3,7.39,3.23,10.79,2,10.81l-.27-.08c-7.71-10.51-17.5-9.15-19.57-8.45s-1.57,1.35-3-1.47c-10.95-17.36-10.74-9.27-11.77-7.07-1.59-2.84-3.94.66-5.11,5.23-1.59-4.2-6.14,3.41-5.46,10.45-5.79-4.54-.23,15.15,2.85,19.09C114.58,166.87,113,169.25,116.38,173.89Z"/><path class="cls-1" d="M208.46,229.35a.83.83,0,0,0,.78-.78s0-.12,0-.29,0-.09,0-.14a7.71,7.71,0,0,0,4.49,1.22h5.4a.83.83,0,1,0,0-1.67h-4.6a7.89,7.89,0,0,0-.58-2.52,5.6,5.6,0,0,0,1.8.31,7.72,7.72,0,0,0,5-2.36h5.07a.83.83,0,1,0,0-1.67h-5.07a7.72,7.72,0,0,0-5-2.36,5.56,5.56,0,0,0-1.8.31,7.9,7.9,0,0,0,.58-2.52h4.6a.84.84,0,1,0,0-1.67h-5.4a7.71,7.71,0,0,0-4.49,1.22s0-.1,0-.14,0-.27,0-.29a.83.83,0,0,0-.78-.78,7.73,7.73,0,0,0-4.52,1.21s0-.1,0-.14,0-.27,0-.29a.83.83,0,0,0-.78-.78c-.13,0-3.22-.18-5.09,1.7a6.84,6.84,0,0,0-1.7,4.54h-6.13a.83.83,0,0,0,0,1.67h6.13a6.83,6.83,0,0,0,1.7,4.54c1.88,1.88,5,1.71,5.09,1.7a.83.83,0,0,0,.78-.78s0-.12,0-.29,0-.09,0-.14A7.73,7.73,0,0,0,208.46,229.35Zm-5.1-8.27a4.06,4.06,0,0,1,4.19-4.19,4.07,4.07,0,0,1-4.19,4.19Zm3,3.57a4.94,4.94,0,0,1,1.19,3,4.06,4.06,0,0,1-4.19-4.19A4.93,4.93,0,0,1,206.36,224.65Zm3.5,1.81a5,5,0,0,1-1.19-3,4.06,4.06,0,0,1,4.19,4.19A5,5,0,0,1,209.85,226.47Zm9.35-4.2a4.66,4.66,0,0,1-6.89,0,4.66,4.66,0,0,1,6.89,0Zm-7.53-2.38a4.94,4.94,0,0,1-3,1.19,4.06,4.06,0,0,1,4.19-4.19A4.94,4.94,0,0,1,211.67,219.89Zm-12.44-1.81a5,5,0,0,1,3-1.19,4.07,4.07,0,0,1-4.19,4.19A5,5,0,0,1,199.23,218.08Zm0,8.39a5,5,0,0,1-1.19-3,4.06,4.06,0,0,1,4.19,4.19A4.94,4.94,0,0,1,199.23,226.47Z"/><path class="cls-1" d="M71.92,215.2a.84.84,0,0,0-.78.78s0,.12,0,.29,0,.09,0,.14a7.71,7.71,0,0,0-4.49-1.22h-5.4a.83.83,0,1,0,0,1.67h4.6a8,8,0,0,0,.58,2.52,5.56,5.56,0,0,0-1.79-.31,7.73,7.73,0,0,0-5,2.36H54.54a.84.84,0,1,0,0,1.67h5.07a7.73,7.73,0,0,0,5,2.36,5.6,5.6,0,0,0,1.79-.31,8,8,0,0,0-.58,2.52h-4.6a.83.83,0,0,0,0,1.67h5.4a7.72,7.72,0,0,0,4.49-1.22s0,.1,0,.14,0,.27,0,.29a.84.84,0,0,0,.78.78,7.74,7.74,0,0,0,4.52-1.21s0,.1,0,.14,0,.27,0,.29a.84.84,0,0,0,.78.78c.13,0,3.22.18,5.09-1.7a6.83,6.83,0,0,0,1.7-4.54h6.13a.84.84,0,0,0,0-1.67H84a6.82,6.82,0,0,0-1.7-4.54c-1.88-1.88-5-1.71-5.09-1.7a.84.84,0,0,0-.78.78s0,.12,0,.29,0,.09,0,.14A7.75,7.75,0,0,0,71.92,215.2Zm5.1,8.27a4.06,4.06,0,0,1-4.19,4.19A4.06,4.06,0,0,1,77,223.46Zm-3-3.57a5,5,0,0,1-1.19-3A4.06,4.06,0,0,1,77,221.08,4.94,4.94,0,0,1,74,219.89Zm-3.5-1.81a5,5,0,0,1,1.19,3,4.06,4.06,0,0,1-4.19-4.19A5,5,0,0,1,70.52,218.08Zm-9.35,4.2a5.71,5.71,0,0,1,3.45-1.53,5.69,5.69,0,0,1,3.45,1.52,5.69,5.69,0,0,1-3.45,1.52A5.68,5.68,0,0,1,61.17,222.27Zm7.53,2.38a4.94,4.94,0,0,1,3-1.19,4.07,4.07,0,0,1-4.19,4.19A5,5,0,0,1,68.71,224.65Zm12.44,1.81a4.94,4.94,0,0,1-3,1.19,4.06,4.06,0,0,1,4.19-4.19A5,5,0,0,1,81.14,226.47Zm0-8.39a5,5,0,0,1,1.19,3,4.06,4.06,0,0,1-4.19-4.19A5,5,0,0,1,81.14,218.08Z"/></g></g></svg>