<?xml version="1.0" encoding="iso-8859-1"?>
<!-- Generator: Adobe Illustrator 19.0.0, SVG Export Plug-In . SVG Version: 6.00 Build 0)  -->
<svg xmlns="http://www.w3.org/2000/svg" xmlns:xlink="http://www.w3.org/1999/xlink" version="1.1" id="Layer_1" x="0px" y="0px" viewBox="0 0 512 512" style="enable-background:new 0 0 512 512;" xml:space="preserve" width="512px" height="512px">
<g>
	<g>
		<path d="M508.688,225.267c-4.422-22.147-13.163-43.131-25.605-61.722c3.224-0.834,6.313-2.18,9.146-4.048    c7.079-4.681,11.193-12.541,11.006-21.024c-0.185-8.482-4.639-16.151-11.906-20.513l-21.223-12.753l24.259-11.969    c2.875-1.42,4.758-4.284,4.918-7.488c0.162-3.203-1.426-6.243-4.146-7.942c-24.319-15.2-51.181-14.946-62.122-14.049    c-0.702-0.731-1.419-1.447-2.159-2.14c2.903-5.227,4.456-11.133,4.456-17.276c0-19.669-15.996-35.67-35.659-35.67    c-12.826,0-24.23,6.702-30.53,17.178c-3.868-1.399-7.977-2.132-12.121-2.132c-19.662,0-35.657,15.996-35.657,35.659    c0,1.682,0.116,3.345,0.343,4.987c-11.528,6.033-19.023,18.005-19.023,31.568c0,19.662,16.002,35.658,35.67,35.658    c1.007,0,2.009-0.052,3.007-0.136c5.624,17.604,12.56,48.813,1.178,72.371c-6.35,13.141-17.428,22.153-33.864,27.55    c-4.641,1.524-7.167,6.521-5.644,11.161c1.523,4.64,6.518,7.168,11.162,5.644c20.946-6.877,35.841-19.212,44.271-36.663    c6.665-13.793,15.141-44.264-2.959-93.325l-0.419-1.121c-5.997-15.934-1.59-33.693,10.971-44.192    c5.803-4.856,12.905-7.939,20.537-8.917c9.487-1.211,19.143,1.118,27.195,6.562c3.35,2.263,6.305,4.976,8.796,8.08    c3.424,4.25,5.881,9.05,7.302,14.274c1.462,5.37,1.805,10.828,1.016,16.242c-0.651,4.539-2.072,8.884-4.224,12.916    c-2.099,3.933-0.943,8.814,2.698,11.387c7.101,5.019,13.782,10.637,19.882,16.728c2.206,2.184,4.436,4.541,6.619,6.996    c17.894,20.197,30.162,44.95,35.48,71.581c1.791,8.976,2.79,18.126,2.97,27.195c0.094,4.824,4.035,8.669,8.838,8.669    c0.059,0,0.119,0,0.178-0.001c4.883-0.097,8.764-4.133,8.668-9.017C511.798,245.465,510.685,235.267,508.688,225.267z     M416.111,51.557c-9.877-4.705-20.889-6.528-31.775-5.139c-10.994,1.408-21.245,5.868-29.642,12.894    c-15.796,13.206-22.795,34.147-18.881,54.391c-8.721-1.233-15.457-8.722-15.457-17.773c0-8.418,5.725-15.621,13.924-17.513    c2.545-0.587,4.699-2.27,5.886-4.595s1.286-5.057,0.27-7.463c-0.929-2.2-1.401-4.549-1.401-6.982    c0-9.909,8.061-17.971,17.97-17.971c4.059,0,7.888,1.321,11.073,3.821c2.382,1.868,5.549,2.39,8.403,1.383    c2.852-1.006,4.993-3.401,5.675-6.349c1.891-8.185,9.089-13.901,17.501-13.901c9.909,0,17.971,8.067,17.971,17.983    C417.627,46.87,417.095,49.312,416.111,51.557z M470.077,85.5l-21.572,10.642c-0.342-2.648-0.855-5.287-1.568-7.909    c-0.663-2.433-1.495-4.795-2.461-7.094C451.521,81.342,460.62,82.369,470.077,85.5z M475.511,146.838    c-2.534,0-5.021-0.775-7.116-2.202c-2.218-2.467-4.467-4.838-6.681-7.029c-5.079-5.068-10.532-9.857-16.277-14.292    c0.84-2.268,1.514-4.592,2.058-6.951l3.755-1.852l30.975,18.613c2.929,1.758,3.304,4.596,3.329,5.737    c0.025,1.14-0.224,3.994-3.068,5.875C480.396,146.111,477.986,146.838,475.511,146.838z" fill="#FFFFFF"/>
	</g>
</g>
<g>
	<g>
		<path d="M502.934,271.594c-4.844-0.65-9.293,2.75-9.942,7.59c-8.752,65.274-58.098,117.614-122.791,130.244    c-21.323,4.164-42.823,3.768-63.905-1.182c-57.834-13.523-103.197-59.552-115.565-117.264c-2.515-11.762-3.643-23.685-3.39-35.577    c10.211,2.683,26.797,5.833,48.407,5.833c14.759,0,31.863-1.47,50.868-5.562c4.775-1.028,7.812-5.732,6.784-10.508    c-1.029-4.776-5.733-7.806-10.508-6.784c-31.478,6.778-57.071,5.602-72.999,3.421c-8.051-1.103-14.49-2.562-19.106-3.815    c3.016-9.084,4.672-18.539,4.927-28.224c1.423-53.951-41.307-99.002-95.253-100.426c-26.14-0.67-50.971,8.839-69.94,26.83    c-18.971,17.992-29.798,42.293-30.487,68.424c-0.342,12.991,1.843,25.7,6.496,37.774c1.284,3.332,4.447,5.566,8.017,5.661    c3.572,0.061,6.846-1.968,8.306-5.227c8.05-17.979,22.382-32.34,40.355-40.437c4.453-2.006,6.436-7.243,4.43-11.695    c-2.006-4.454-7.245-6.437-11.696-4.43c-15.01,6.761-27.937,17.106-37.752,29.996c-0.416-3.687-0.574-7.417-0.475-11.176    c0.565-21.408,9.436-41.316,24.977-56.057c15.542-14.74,35.916-22.566,57.3-21.982c44.197,1.166,79.206,38.076,78.041,82.277    c-0.099,3.745-0.453,7.448-1.058,11.097c-17.45-25.677-46.318-41.866-78.319-42.711c-5.061-0.132-10.142,0.123-15.12,0.761    c-4.844,0.62-8.27,5.052-7.648,9.896c0.62,4.845,5.047,8.267,9.897,7.649c4.081-0.524,8.252-0.732,12.405-0.623    c19.133,0.506,36.898,7.712,50.659,19.743c-23.239-7.857-48.213-6.758-70.799,3.221c-23.914,10.567-42.28,29.814-51.714,54.193    c-9.442,24.377-8.823,50.973,1.743,74.885s29.812,42.28,54.194,51.714c11.344,4.394,23.205,6.615,35.298,6.615    c0.815,0,1.636-0.009,2.453-0.031c3.571-0.088,6.738-2.316,8.029-5.647c1.29-3.331,0.449-7.11-2.13-9.581    c-23.48-22.491-31.068-56.596-19.334-86.888c0.001-0.001,0.001-0.002,0.002-0.004c10.547-27.26,34.73-46.259,63.138-50.394    c-0.443,13.866,0.779,27.776,3.711,41.486c13.078,61.03,59.22,110.317,118.903,128.119c-2.104,8.911-1.033,20.459,8.325,34.235    c2.746,4.043,5.773,7.602,8.51,10.49c-0.643,0.538-1.295,1.104-1.946,1.699c-8.445,7.699-12.909,16.433-12.909,25.255    c0,4.884,3.958,8.844,8.844,8.844s8.844-3.96,8.844-8.844c0-3.765,2.487-7.492,5.534-10.623    c6.511,14.019,21.715,19.467,32.79,19.467c4.885,0,8.844-3.96,8.844-8.844s-3.959-8.844-8.844-8.844    c-1.871,0-18.277-0.48-18.277-17.098c0-7.606,7.349-17.472,20.693-27.783c9.53-7.363,19.223-12.69,22.189-14.262    c71.476-14.545,125.887-72.621,135.587-144.963C511.173,276.694,507.774,272.244,502.934,271.594z M90.092,297.207    c-11.563,29.846-7.758,62.724,9.209,88.729c-3.6-0.848-7.153-1.95-10.647-3.303c-19.975-7.731-35.745-22.777-44.4-42.368    c-8.655-19.591-9.163-41.379-1.427-61.352c7.731-19.974,22.777-35.743,42.369-44.401c10.378-4.586,21.372-6.885,32.385-6.885    c9.778,0,19.573,1.814,28.964,5.448c3.497,1.355,6.869,2.935,10.103,4.733C126.598,245.605,101.645,267.353,90.092,297.207z     M318.928,451.846c-5.583-6.703-11.142-15.966-9.303-24.836c9.411,1.779,18.883,2.752,28.379,2.919    C329.18,437.281,322.814,444.605,318.928,451.846z" fill="#FFFFFF"/>
	</g>
</g>
<g>
	<g>
		<path d="M462.281,285.738c-4.627-24.731-22.693-46.797-47.15-57.587c-4.467-1.972-9.689,0.052-11.662,4.521    c-1.972,4.469,0.053,9.689,4.522,11.661c19.194,8.468,33.335,25.579,36.904,44.657c2.237,11.959,1.278,29.844-16.004,47.125    c-15.448,15.448-49.653,22.598-76.701,22.829c-33.359,0.284-65.363-8.415-91.976-24.779c25.598-5.646,68.156-17.552,88.03-37.427    c3.455-3.453,3.455-9.053,0.001-12.506c-3.455-3.454-9.054-3.454-12.508,0c-9.996,9.996-30.055,19.441-58.009,27.315    c-21.8,6.14-40.663,9.082-40.852,9.112c-3.456,0.533-6.273,3.052-7.19,6.427c-0.914,3.375,0.244,6.971,2.957,9.176    c32.079,26.074,73.902,40.38,117.951,40.379c0.58,0,1.166-0.002,1.746-0.007c37.406-0.321,72.362-11.315,89.057-28.009    C459.134,330.887,466.55,308.556,462.281,285.738z" fill="#FFFFFF"/>
	</g>
</g>
<g>
	<g>
		<circle cx="408.115" cy="96.504" r="8.844" fill="#FFFFFF"/>
	</g>
</g>
<g>
</g>
<g>
</g>
<g>
</g>
<g>
</g>
<g>
</g>
<g>
</g>
<g>
</g>
<g>
</g>
<g>
</g>
<g>
</g>
<g>
</g>
<g>
</g>
<g>
</g>
<g>
</g>
<g>
</g>
</svg>
